<?xml version="1.0" encoding="utf-8"?>
<!-- Generator: Adobe Illustrator 15.0.0, SVG Export Plug-In . SVG Version: 6.00 Build 0)  -->
<!DOCTYPE svg PUBLIC "-//W3C//DTD SVG 1.1//EN" "http://www.w3.org/Graphics/SVG/1.1/DTD/svg11.dtd">
<svg version="1.1" id="Layer_1" xmlns="http://www.w3.org/2000/svg" xmlns:xlink="http://www.w3.org/1999/xlink" x="0px" y="0px"
	 width="185px" height="73px" viewBox="0 0 222.609 88.107" enable-background="new 0 0 222.609 88.107"
	 xml:space="preserve">
<rect id="XMLID_250_" x="-109.1" y="550.9" fill="#346166" width="97.1" height="71.897"/>
<path id="XMLID_69_" fill="#346166" d="M10.508,1.353h47.3c4.3,0,7.899,3.601,7.899,7.9v47.4c0,4.301-3.5,7.9-7.899,7.9h-47.3
	c-4.301,0-7.9-3.602-7.9-7.9v-47.4C2.607,4.853,6.107,1.353,10.508,1.353"/>
<polygon id="XMLID_68_" fill="#FFFFFF" points="21.207,44.253 22.307,50.454 22.508,50.454 23.807,44.253 31.907,16.853 
	35.107,16.853 43.107,44.253 44.407,50.454 44.607,50.454 45.807,44.253 52.607,16.853 56.008,16.853 46.207,55.253 43.207,55.253 
	34.508,25.753 33.607,21.653 33.407,21.653 32.508,25.753 23.707,55.253 20.707,55.253 10.907,16.853 14.307,16.853 "/>
<path id="XMLID_56_" fill="#346166" d="M220.607,56.454h-3.1v-40.5h3.102L220.607,56.454L220.607,56.454z M208.807,56.454h-3.101
	v-40.5h3.102L208.807,56.454L208.807,56.454z M182.907,54.253c2.4,0,4.5-0.602,6.2-1.699c1.7-1.102,2.899-2.602,3.6-4.4v-5.4h-6.899
	c-2.5,0-4.603,0.6-6.301,1.8c-1.602,1.199-2.5,2.699-2.5,4.299c0,1.602,0.5,2.9,1.601,3.801
	C179.707,53.553,181.008,54.253,182.907,54.253z M193.207,56.454c-0.199-1-0.3-1.801-0.398-2.5c-0.102-0.701-0.102-1.4-0.102-2.201
	c-1,1.5-2.3,2.801-4.1,3.801c-1.7,1-3.8,1.5-6,1.5c-2.8,0-4.9-0.701-6.4-2.201s-2.3-3.398-2.3-6c0-2.5,1.101-4.5,3.3-6.099
	c2.2-1.603,5.102-2.3,8.602-2.3h6.898v-3.5c0-2-0.6-3.601-1.898-4.7c-1.301-1.101-3.102-1.7-5.399-1.7c-2.101,0-3.8,0.5-5.199,1.6
	c-1.301,1-2,2.4-2,3.9h-2.9l-0.103-0.2c-0.1-2.1,0.802-4,2.7-5.6c1.899-1.601,4.399-2.4,7.5-2.4c3.102,0,5.602,0.8,7.399,2.4
	c1.898,1.6,2.801,3.8,2.801,6.8v13.799c0,1,0.1,2,0.199,2.9c0.101,0.898,0.301,1.898,0.601,2.801h-3.2V56.454L193.207,56.454z
	 M147.707,33.153c1-1.699,2.2-3,3.801-3.899c1.602-0.9,3.399-1.4,5.399-1.4c3,0,5.2,0.9,6.8,2.8c1.602,1.801,2.4,4.7,2.4,8.5v17.301
	h-3.2V39.153c0-3.1-0.6-5.199-1.8-6.6c-1.2-1.3-2.9-2-5-2c-2.2,0-4,0.5-5.4,1.6c-1.398,1.101-2.398,2.5-3.1,4.301v20.1h-3.1v-40.6
	h3.102v17.199H147.707z M133.508,47.253c0-1.9-0.801-3.5-2.301-4.8c-1.5-1.302-4.199-2.399-7.8-3.602c-4-1.1-7.1-2.5-9.2-4.1
	c-2.1-1.601-3.199-3.9-3.199-6.7c0-2.9,1.199-5.3,3.5-7.1c2.399-1.9,5.399-2.801,9-2.801c3.801,0,6.899,1,9.301,3.2
	c2.301,2.101,3.5,4.8,3.398,8l-0.1,0.2h-2.9c0-2.5-0.898-4.6-2.699-6.2c-1.801-1.6-4.199-2.5-7-2.5c-2.898,0-5.199,0.7-6.898,2.101
	c-1.7,1.399-2.5,3.1-2.5,5.1c0,1.9,0.8,3.5,2.3,4.7s4.2,2.399,8,3.5c4,1.2,7,2.6,9.102,4.3c2.101,1.699,3.101,4,3.101,6.799
	c0,2.9-1.2,5.301-3.7,7.102c-2.399,1.801-5.5,2.699-9.3,2.699c-3.7,0-7-0.898-9.7-2.801c-2.8-1.898-4.1-4.699-4-8.299l0.101-0.201
	h2.899c0,2.9,1.101,5.102,3.301,6.5c2.199,1.4,4.699,2.102,7.5,2.102c2.898,0,5.299-0.699,7.1-2
	C132.607,51.053,133.508,49.352,133.508,47.253z M102.807,56.454h-3.101v-40.5h3.101V56.454z M89.807,56.454h-3.101v-40.5h3.101
	V56.454z M77.707,20.353h-3.1v-4.399h3.1V20.353z M77.707,56.454h-3.1V28.353h3.1V56.454z"/>
<g id="XMLID_413_">
	<path id="XMLID_414_" fill="#346166" d="M3.907,75.753c0.601-0.102,1.5-0.199,2.5-0.199c1.3,0,2.2,0.199,2.8,0.699
		c0.5,0.398,0.801,1,0.801,1.801c0,1.199-0.801,2-1.601,2.299l0,0c0.601,0.201,1,0.9,1.3,1.701c0.301,1.1,0.5,2.199,0.7,2.5h-1.7
		c-0.1-0.301-0.3-1-0.6-2.102c-0.3-1.199-0.7-1.602-1.6-1.602H5.707v3.701h-1.8V75.753z M5.607,79.753h1c1.1,0,1.8-0.602,1.8-1.5
		c0-1-0.7-1.4-1.8-1.4c-0.5,0-0.9,0-1,0.102V79.753z"/>
	<path id="XMLID_417_" fill="#346166" d="M20.107,80.653h-3.4v2.699h3.801v1.4h-5.5v-9h5.3v1.398h-3.601v2.301h3.4V80.653z"/>
	<path id="XMLID_419_" fill="#346166" d="M25.407,75.753c0.7-0.102,1.601-0.199,2.601-0.199c1.699,0,2.899,0.299,3.699,1
		c0.9,0.699,1.4,1.799,1.4,3.299c0,1.602-0.5,2.801-1.4,3.602c-0.899,0.801-2.3,1.199-4.1,1.199c-1,0-1.7-0.1-2.2-0.1V75.753z
		 M27.107,83.454c0.2,0,0.6,0,0.9,0c2.1,0,3.399-1.199,3.399-3.5c0-2-1.1-3.102-3.2-3.102c-0.5,0-0.899,0-1.1,0.102V83.454
		L27.107,83.454z"/>
	<path id="XMLID_422_" fill="#346166" d="M43.107,80.653h-3.4v2.699h3.801v1.4h-5.5v-9h5.3v1.398h-3.601v2.301h3.4V80.653
		L43.107,80.653z"/>
	<path id="XMLID_424_" fill="#346166" d="M48.508,75.653h5.199v1.4h-3.6v2.5h3.3v1.398h-3.3v3.801h-1.6V75.653z"/>
	<path id="XMLID_426_" fill="#346166" d="M60.407,75.653v9h-1.6v-9H60.407z"/>
	<path id="XMLID_428_" fill="#346166" d="M65.807,84.653v-9h1.899l2.301,3.9c0.6,1,1.1,2.1,1.5,3l0,0
		c-0.101-1.201-0.101-2.4-0.101-3.801v-3.199h1.5v9h-1.7l-2.399-4c-0.601-1-1.2-2.102-1.601-3.102l0,0
		c0.101,1.199,0.101,2.398,0.101,3.801v3.199h-1.5V84.653L65.807,84.653z"/>
	<path id="XMLID_430_" fill="#346166" d="M80.008,75.653v9h-1.601v-9H80.008z"/>
	<path id="XMLID_432_" fill="#346166" d="M85.407,84.653v-9h1.9l2.3,3.9c0.6,1,1.1,2.1,1.5,3l0,0c-0.1-1.201-0.1-2.4-0.1-3.801
		v-3.199h1.5v9h-1.7l-2.4-4c-0.6-1-1.2-2.102-1.6-3.102l0,0c0.1,1.199,0.1,2.398,0.1,3.801v3.199h-1.5V84.653z"/>
	<path id="XMLID_434_" fill="#346166" d="M105.207,84.253c-0.6,0.199-1.699,0.5-2.899,0.5c-1.5,0-2.7-0.4-3.5-1.199
		c-0.8-0.801-1.3-2-1.3-3.301c0-2.9,2-4.699,5-4.699c1.1,0,2,0.199,2.399,0.398l-0.399,1.301c-0.5-0.199-1.101-0.4-2.101-0.4
		c-1.899,0-3.3,1.102-3.3,3.201s1.3,3.299,3.1,3.299c0.601,0,1-0.1,1.2-0.199v-2.301h-1.6v-1.299h3.2v4.699H105.207z"/>
	<path id="XMLID_436_" fill="#346166" d="M116.607,75.753c0.6-0.102,1.5-0.199,2.5-0.199c1.3,0,2.2,0.199,2.8,0.699
		c0.5,0.398,0.8,1,0.8,1.801c0,1.199-0.8,2-1.6,2.299l0,0c0.6,0.201,1,0.9,1.3,1.701c0.3,1.1,0.5,2.199,0.7,2.5h-1.7
		c-0.1-0.301-0.3-1-0.6-2.102c-0.301-1.199-0.7-1.602-1.603-1.602h-0.8v3.701h-1.6v-8.801h-0.198V75.753z M118.207,79.753h1
		c1.102,0,1.801-0.602,1.801-1.5c0-1-0.699-1.4-1.801-1.4c-0.5,0-0.898,0-1,0.102V79.753z"/>
	<path id="XMLID_439_" fill="#346166" d="M132.807,80.653h-3.4v2.699h3.8v1.4h-5.5v-9h5.301v1.398h-3.601v2.301h3.4V80.653z"/>
	<path id="XMLID_441_" fill="#346166" d="M138.107,75.653h1.6v7.699h3.7v1.4h-5.399v-9.1H138.107z"/>
	<path id="XMLID_443_" fill="#346166" d="M149.807,75.653v9h-1.601v-9H149.807z"/>
	<path id="XMLID_445_" fill="#346166" d="M157.008,82.153l-0.801,2.602h-1.699l2.899-9h2.101l2.899,9h-1.8l-0.8-2.602H157.008z
		 M159.607,80.852l-0.7-2.199c-0.2-0.6-0.3-1.199-0.5-1.699l0,0c-0.1,0.5-0.3,1.199-0.399,1.699l-0.699,2.199H159.607z"/>
	<path id="XMLID_448_" fill="#346166" d="M167.207,75.753c0.5-0.102,1.5-0.199,2.4-0.199c1.2,0,2,0.1,2.6,0.6
		c0.602,0.301,0.9,0.9,0.9,1.699c0,0.801-0.5,1.602-1.5,2l0,0c1,0.201,1.8,1,1.8,2.201c0,0.799-0.3,1.398-0.899,1.898
		c-0.601,0.602-1.7,0.801-3.4,0.801c-0.9,0-1.601-0.102-2-0.102v-8.898H167.207z M168.907,79.352h0.8c1.102,0,1.801-0.5,1.801-1.299
		c0-0.801-0.601-1.201-1.699-1.201c-0.5,0-0.801,0-0.899,0.102L168.907,79.352L168.907,79.352z M168.907,83.553c0.2,0,0.5,0,0.9,0
		c1.1,0,2-0.4,2-1.5c0-1-0.9-1.5-2.103-1.5h-0.798V83.553z"/>
	<path id="XMLID_452_" fill="#346166" d="M180.107,75.653v9h-1.6v-9H180.107z"/>
	<path id="XMLID_454_" fill="#346166" d="M185.508,75.653h1.602v7.699h3.699v1.4h-5.399v-9.1H185.508z"/>
	<path id="XMLID_456_" fill="#346166" d="M197.207,75.653v9h-1.6v-9H197.207z"/>
	<path id="XMLID_458_" fill="#346166" d="M204.307,77.053h-2.601v-1.4h6.801v1.4h-2.601v7.699h-1.6V77.053L204.307,77.053z"/>
	<path id="XMLID_460_" fill="#346166" d="M215.407,84.653v-3.801l-2.899-5.299h1.899l1.101,2.299c0.301,0.701,0.5,1.201,0.801,1.801
		l0,0c0.199-0.6,0.5-1.1,0.801-1.801l1.101-2.299h1.899l-3,5.199v3.801h-1.7L215.407,84.653L215.407,84.653z"/>
</g>
<g id="XMLID_205_">
	<path id="XMLID_208_" fill="#FFFFFF" d="M-66.7,573.2l8.101,18.6l7.6-17.6h3.601l-11.2,26l-8.101-18.7l-8.1,18.7l-11.2-26h3.601
		L-74.7,592L-66.7,573.2z"/>
	<path id="XMLID_251_" fill="#FFFFFF" d="M-45.5,574.2h3.4v25.2h-3.4V574.2z"/>
	<path id="XMLID_253_" fill="#FFFFFF" d="M-37.6,574.2h3.399V596h8.2v3.4h-11.6V574.2z"/>
	<path id="XMLID_256_" fill="#FFFFFF" d="M-23.6,574.2h3.399V596h8.2v3.4h-11.6V574.2z"/>
	<path id="XMLID_259_" fill="#346166" d="M5.3,577l-2.8,2.2c-0.7-0.8-1.399-1.3-2-1.7c-0.6-0.4-1.5-0.6-2.6-0.6
		c-1.2,0-2.2,0.3-3,0.8c-0.8,0.6-1.2,1.3-1.2,2.2c0,0.8,0.3,1.397,1,2c0.7,0.6,1.8,1.197,3.4,1.897c1.6,0.7,2.899,1.3,3.8,1.9
		c0.899,0.6,1.6,1.3,2.2,2c0.6,0.7,1,1.5,1.3,2.3s0.399,1.7,0.399,2.6c0,2.103-0.8,3.9-2.3,5.4s-3.399,2.2-5.5,2.2
		c-2.1,0-4-0.602-5.6-1.7c-1.601-1.2-2.9-2.9-3.7-5.2l3.4-1c1.3,2.8,3.199,4.3,5.8,4.3c1.3,0,2.3-0.397,3.1-1.1
		c0.8-0.8,1.2-1.7,1.2-2.8c0-0.7-0.2-1.4-0.7-2.102c-0.399-0.698-1-1.301-1.6-1.698c-0.601-0.4-1.7-1-3.101-1.5
		c-1.399-0.603-2.5-1.103-3.3-1.603s-1.399-1.1-2-1.699c-0.6-0.698-1-1.301-1.2-2c-0.3-0.698-0.399-1.398-0.399-2.101
		c0-1.8,0.7-3.3,2.2-4.6c1.5-1.302,3.199-1.9,5.3-1.9c1.399,0,2.8,0.3,4.2,0.9C3,575,4.3,575.8,5.3,577z"/>
	<path id="XMLID_261_" fill="#346166" d="M8.7,574.2h3.4v9.7h12.1v-9.7h3.4v25.2h-3.4V587.3H12.1V599.4H8.7V574.2z"/>
	<path id="XMLID_263_" fill="#346166" d="M40.8,573.2l11.9,26.2h-3.6l-2.9-6.5H35.5l-2.899,6.5H29L40.8,573.2z M40.8,581.099l-4,9
		H44.9L40.8,581.099z"/>
	<path id="XMLID_266_" fill="#346166" d="M54.8,574.2h3.4V596h8.2v3.4H54.8V574.2z"/>
	<path id="XMLID_268_" fill="#346166" d="M68.8,574.2h3.4V596h8.2v3.4H68.8V574.2z"/>
</g>
<rect id="XMLID_206_" x="-53.5" y="550.9" fill="#346166" width="23.3" height="23.3"/>
<rect id="XMLID_271_" x="-109.1" y="567.099" fill="#346166" width="23.3" height="23.303"/>
<rect id="XMLID_257_" x="-53.5" y="599.5" fill="#346166" width="23.3" height="23.3"/>
<rect id="XMLID_348_" x="230.4" y="550.9" fill="#346166" width="97.1" height="71.897"/>
<rect id="XMLID_325_" x="286" y="550.9" fill="#346166" width="23.3" height="23.3"/>
<rect id="XMLID_277_" x="230.4" y="567.099" fill="#346166" width="23.3" height="23.303"/>
<rect id="XMLID_275_" x="286" y="599.5" fill="#346166" width="23.3" height="23.3"/>
<path id="XMLID_389_" fill="#FFFFFF" d="M289.7,606.099h-34.3c-1.801,0-3.301-1.5-3.301-3.3v-34.3c0-1.8,1.5-3.3,3.301-3.3h34.3
	c1.8,0,3.3,1.5,3.3,3.3v34.3C293,604.599,291.5,606.099,289.7,606.099z"/>
<g id="XMLID_326_">
	<path id="XMLID_346_" fill="#346166" d="M272.8,573.2l8.102,18.6l7.601-17.6h3.602l-11.199,26l-8.102-18.7l-8.101,18.7l-11.2-26
		h3.602l7.699,17.8L272.8,573.2z"/>
	<path id="XMLID_344_" fill="#FFFFFF" d="M294.1,574.2h3.399v25.2H294.1V574.2z"/>
	<path id="XMLID_342_" fill="#FFFFFF" d="M301.9,574.2h3.397V596h8.2v3.4h-11.601v-25.2H301.9z"/>
	<path id="XMLID_340_" fill="#FFFFFF" d="M315.9,574.2h3.397V596h8.2v3.4h-11.601v-25.2H315.9z"/>
	<path id="XMLID_338_" fill="#346166" d="M344.8,577l-2.8,2.2c-0.7-0.8-1.399-1.3-2-1.7c-0.6-0.4-1.5-0.6-2.6-0.6
		c-1.2,0-2.2,0.3-3,0.8c-0.801,0.6-1.2,1.3-1.2,2.2c0,0.8,0.3,1.397,1,2c0.7,0.6,1.8,1.197,3.399,1.897
		c1.601,0.7,2.898,1.3,3.801,1.9c0.897,0.6,1.6,1.3,2.199,2c0.601,0.7,1,1.5,1.301,2.3c0.299,0.8,0.397,1.7,0.397,2.6
		c0,2.103-0.8,3.9-2.3,5.4s-3.398,2.2-5.5,2.2c-2.101,0-4-0.602-5.601-1.7c-1.602-1.2-2.899-2.9-3.701-5.2l3.4-1
		c1.301,2.8,3.199,4.3,5.801,4.3c1.299,0,2.299-0.397,3.101-1.1c0.8-0.8,1.198-1.7,1.198-2.8c0-0.7-0.198-1.4-0.698-2.102
		c-0.398-0.698-1-1.301-1.601-1.698c-0.602-0.4-1.701-1-3.102-1.5c-1.398-0.603-2.5-1.103-3.3-1.603c-0.801-0.5-1.399-1.1-2-1.699
		c-0.6-0.698-1-1.301-1.2-2c-0.3-0.698-0.398-1.398-0.398-2.101c0-1.8,0.699-3.3,2.199-4.6c1.5-1.302,3.199-1.9,5.301-1.9
		c1.398,0,2.799,0.3,4.199,0.9C342.5,575,343.9,575.8,344.8,577z"/>
	<path id="XMLID_336_" fill="#346166" d="M348.2,574.2h3.399v9.7H363.7v-9.7h3.399v25.2H363.7V587.3h-12.1V599.4h-3.4V574.2z"/>
	<path id="XMLID_332_" fill="#346166" d="M380.4,573.2l11.897,26.2h-3.6l-2.9-6.5H375l-2.899,6.5H368.5L380.4,573.2z M380.4,581.099
		l-4,9h8.1L380.4,581.099z"/>
	<path id="XMLID_329_" fill="#346166" d="M394.3,574.2h3.4V596h8.2v3.4H394.3V574.2z"/>
	<path id="XMLID_327_" fill="#346166" d="M408.3,574.2h3.4V596h8.2v3.4H408.3V574.2z"/>
</g>
</svg>
