<?xml version="1.0" standalone="no"?><!DOCTYPE svg PUBLIC "-//W3C//DTD SVG 1.1//EN" "http://www.w3.org/Graphics/SVG/1.1/DTD/svg11.dtd" ><svg xmlns="http://www.w3.org/2000/svg"><metadata>Generated by Glyphter</metadata><defs><font id="Glyphter" horiz-adv-x="0"><font-face units-per-em="1024" ascent="1024" descent="0" font-family="Glyphter" font-weight="normal" /><missing-glyph horiz-adv-x="0" /><glyph unicode="&#x0041;" d="M1,512.5C1,118.955,427.03,-127.014,767.854,69.748C926.039,161.089,1023.472,329.861,1023.472,512.5C1023.472,906.045,597.442,1152.014,256.618,955.252C98.433,863.911,1,695.139,1,512.5M296.452,589.185C296.452,589.185,387.409,589.185,387.409,589.185C387.409,589.185,387.409,296.503,387.409,296.503C387.409,296.503,296.452,296.503,296.452,296.503C296.452,296.503,296.452,589.185,296.452,589.185M342.037,734.675C382.702,734.185,407.582,689.856,386.834,654.879C366.065,619.923,315.24,620.541,295.323,655.987C290.871,663.954,288.528,672.943,288.57,682.06C288.57,711.243,312.215,734.888,341.398,734.888M444.497,589.185C444.497,589.185,531.834,589.185,531.834,589.185C531.834,589.185,531.834,549.139,531.834,549.139C531.834,549.139,533.112,549.139,533.112,549.139C550.749,579.28,583.404,597.408,618.318,596.428C710.553,596.428,727.381,535.719,727.381,456.903C727.381,456.903,727.381,296.29,727.381,296.29C727.381,296.29,637.276,296.29,637.276,296.29C637.276,296.29,637.276,437.945,637.276,437.945C637.276,471.814,637.276,515.482,589.987,515.482C542.697,515.482,535.455,478.418,535.455,440.288C535.455,440.288,535.455,295.438,535.455,295.438C535.455,295.438,444.497,295.438,444.497,295.438C444.497,295.438,444.497,589.185,444.497,589.185" class="icon-Fichier 1"/><glyph unicode="&#x0042;" d="M1,512.5C1,118.955,427.03,-127.014,767.854,69.748C926.039,161.089,1023.472,329.861,1023.472,512.5C1023.472,906.045,597.442,1152.014,256.618,955.252C98.433,863.911,1,695.139,1,512.5M551.857,256.882C551.857,256.882,551.857,490.133,551.857,490.133C551.857,490.133,629.394,490.133,629.394,490.133C629.394,490.133,641.11,581.091,641.11,581.091C641.11,581.091,551.857,581.091,551.857,581.091C551.857,581.091,551.857,639.031,551.857,639.031C551.857,665.445,559.099,683.338,596.803,683.338C596.803,683.338,644.945,683.338,644.945,683.338C644.945,683.338,644.945,764.497,644.945,764.497C621.662,766.968,598.273,768.182,574.863,768.118C505.42,768.118,457.917,725.515,457.917,647.978C457.917,647.978,457.917,580.878,457.917,580.878C457.917,580.878,379.528,580.878,379.528,580.878C379.528,580.878,379.528,489.92,379.528,489.92C379.528,489.92,458.982,489.92,458.982,489.92C458.982,489.92,458.982,256.882,458.982,256.882C458.982,256.882,551.857,256.882,551.857,256.882" class="icon-Fichier 2"/><glyph unicode="&#x0043;" d="M1,512.5C1,118.955,427.03,-127.014,767.854,69.748C926.039,161.089,1023.472,329.861,1023.472,512.5C1023.472,906.045,597.442,1152.014,256.618,955.252C98.433,863.911,1,695.139,1,512.5M512.236,745.112C448.332,745.112,441.089,745.112,416.379,743.621C397.08,743.217,377.994,739.553,359.93,732.758C328.724,720.68,304.057,696.012,291.979,664.806C285.183,646.742,281.52,627.656,281.115,608.357C280.05,583.647,279.624,575.552,279.624,512.5C279.624,449.448,279.624,441.353,281.115,416.643C281.52,397.344,285.183,378.258,291.979,360.194C304.057,328.988,328.724,304.32,359.93,292.242C377.994,285.447,397.08,281.783,416.379,281.379C441.089,280.314,449.184,279.888,512.236,279.888C575.289,279.888,583.383,279.888,608.093,281.379C627.392,281.783,646.478,285.447,664.542,292.242C695.749,304.32,720.416,328.988,732.494,360.194C739.289,378.258,742.953,397.344,743.358,416.643C744.423,441.353,744.849,449.448,744.849,512.5C744.849,575.552,744.849,583.647,743.358,608.357C742.953,627.656,739.289,646.742,732.494,664.806C720.416,696.012,695.749,720.68,664.542,732.758C646.478,739.553,627.392,743.217,608.093,743.621C583.383,744.686,575.289,745.112,512.236,745.112C512.236,745.112,512.236,745.112,512.236,745.112M403.811,512.5C403.811,429.041,494.172,376.873,566.448,418.603C599.998,437.966,620.661,473.774,620.661,512.5C620.661,595.959,530.3,648.127,458.024,606.397C424.474,587.034,403.811,551.226,403.811,512.5M618.105,649.043C618.105,625.419,643.666,610.679,664.116,622.48C673.616,627.954,679.453,638.094,679.453,649.043C679.453,672.666,653.891,687.407,633.442,675.606C623.941,670.131,618.105,659.992,618.105,649.043" class="icon-Fichier 4"/><glyph unicode="&#x0044;" d="M1,512.5C1,118.955,427.03,-127.014,767.854,69.748C926.039,161.089,1023.472,329.861,1023.472,512.5C1023.472,906.045,597.442,1152.014,256.618,955.252C98.433,863.911,1,695.139,1,512.5M325.848,36.198C319.202,84.723,319.841,133.994,327.765,182.327C336.925,223.013,387.622,437.945,387.622,437.945C377.206,461.845,371.987,487.705,372.285,513.778C372.285,584.925,413.397,637.966,464.734,637.966C507.337,637.966,528.638,605.162,528.638,565.967C528.638,522.086,500.733,456.477,486.035,395.555C473.617,347.115,511.725,300.529,561.656,303.106C652.613,303.106,722.269,398.963,722.269,537.423C722.269,659.906,634.294,745.325,509.254,745.325C383.298,750.31,278.623,649.213,279.198,523.151C279.283,481.187,292.618,440.33,317.327,406.418C321.034,402.499,322.418,396.918,320.949,391.72C317.114,375.531,308.381,340.81,306.677,333.78C304.972,326.751,299.221,322.491,289.635,326.964C225.731,356.786,185.897,450.087,185.897,525.068C185.684,686.107,302.842,834.153,522.887,834.153C700.328,834.153,838.149,707.835,838.149,538.914C838.149,362.75,726.955,220.882,572.945,220.882C521.183,220.882,472.402,247.722,455.787,279.675C455.787,279.675,423.835,158.043,423.835,158.043C408.455,110.796,386.962,65.744,359.93,24.056" class="icon-Fichier 5"/><glyph unicode="&#x0045;" d="M1,512.5C1,118.955,427.03,-127.014,767.854,69.748C926.039,161.089,1023.472,329.861,1023.472,512.5C1023.472,906.045,597.442,1152.014,256.618,955.252C98.433,863.911,1,695.139,1,512.5M416.379,304.81C581.53,303.745,715.666,437.881,714.6,603.031C714.6,607.569,714.6,612.127,714.6,616.664C735.156,631.512,752.901,649.895,767.002,670.983C747.852,662.463,727.53,656.86,706.719,654.368C728.638,667.426,745.062,688.024,752.943,712.308C732.345,700.038,709.786,691.411,686.269,686.746C630.8,745.538,532.473,722.235,509.275,644.782C504.056,627.358,503.46,608.847,507.55,591.103C423.238,595.342,344.657,635.133,291.34,700.592C263.541,652.707,277.728,591.465,323.718,560.641C307.06,561.174,290.764,565.711,276.215,573.848C276.215,573.848,276.215,573.848,276.215,572.57C276.322,522.299,312.066,479.163,361.421,469.684C345.999,465.509,329.81,464.934,314.132,467.98C327.914,425.419,367.173,396.258,411.906,395.342C374.735,366.137,328.809,350.31,281.541,350.396C273.191,350.694,264.883,351.461,256.618,352.739C304.206,321.83,359.632,305.194,416.379,304.81" class="icon-Fichier 6"/><glyph unicode="&#x0046;" d="C0,1024,0,0,0,0C0,0,1024,0,1024,0C1024,0,1024,1024,1024,1024C1024,1024,0,1024,0,1024M256.426,767.574C256.426,767.574,767.574,767.574,767.574,767.574C767.574,767.574,767.574,256.426,767.574,256.426C767.574,256.426,256.426,256.426,256.426,256.426C256.426,256.426,256.426,767.574,256.426,767.574M554.596,724.978C554.596,724.978,384.213,724.978,384.213,724.978C360.69,724.978,341.617,705.906,341.617,682.383C341.617,682.383,341.617,341.617,341.617,341.617C341.617,318.094,360.69,299.022,384.213,299.022C384.213,299.022,639.787,299.022,639.787,299.022C663.31,299.022,682.383,318.094,682.383,341.617C682.383,341.617,682.383,597.191,682.383,597.191C682.383,597.191,554.596,724.978,554.596,724.978M597.191,384.213C597.191,384.213,426.809,384.213,426.809,384.213C426.809,384.213,426.809,426.809,426.809,426.809C426.809,426.809,597.191,426.809,597.191,426.809C597.191,426.809,597.191,384.213,597.191,384.213M597.191,469.404C597.191,469.404,426.809,469.404,426.809,469.404C426.809,469.404,426.809,512,426.809,512C426.809,512,597.191,512,597.191,512C597.191,512,597.191,469.404,597.191,469.404M533.298,575.894C533.298,575.894,533.298,693.032,533.298,693.032C533.298,693.032,650.436,575.894,650.436,575.894C650.436,575.894,533.298,575.894,533.298,575.894" class="icon-Fichier 7"/><glyph unicode="&#x0047;" d="M1,512C1,118.428,427.036,-127.522,767.864,69.264C926.051,160.563,1023.485,329.359,1023.485,512C1023.485,905.572,597.45,1151.522,256.621,954.736C98.434,863.437,1,694.641,1,512M551.864,256.379C551.864,256.379,551.864,489.846,551.864,489.846C551.864,489.846,630.254,489.846,630.254,489.846C630.254,489.846,642.183,580.592,642.183,580.592C642.183,580.592,551.864,580.592,551.864,580.592C551.864,580.592,551.864,638.533,551.864,638.533C551.864,664.947,559.107,681.136,597.024,681.136C597.024,681.136,645.166,681.136,645.166,681.136C645.166,681.136,645.166,764.213,645.166,764.213C621.819,766.641,598.344,767.749,574.87,767.621C507.301,772.393,451.66,715.347,458.136,647.905C458.136,647.905,458.136,581.018,458.136,581.018C458.136,581.018,379.746,581.018,379.746,581.018C379.746,581.018,379.746,489.846,379.746,489.846C379.746,489.846,458.136,489.846,458.136,489.846C458.136,489.846,458.136,256.805,458.136,256.805C458.136,256.805,551.864,256.379,551.864,256.379" class="icon-Fichier 8"/><glyph unicode="&#x0048;" d="M1,512C1,118.428,427.036,-127.522,767.864,69.264C926.051,160.563,1023.485,329.359,1023.485,512C1023.485,905.572,597.45,1151.522,256.621,954.736C98.434,863.437,1,694.641,1,512M417.663,304.521C582.368,304.521,715.888,438.04,715.888,602.746C715.888,607.432,715.888,611.692,715.888,616.379C736.422,631.162,754.188,649.482,768.29,670.485C749.502,662.817,729.691,657.96,709.497,656C729.734,669.292,744.773,689.146,752.101,712.237C731.566,700.009,709.071,691.361,685.639,686.675C631.021,746.064,532.607,724.038,508.493,647.053C502.785,628.819,502.146,609.349,506.704,590.817C422.988,595.716,345.194,635.593,292.408,700.734C264.631,652.507,279.414,590.944,326.065,560.568C309.322,561.079,292.962,565.595,278.349,573.775C278.349,573.775,278.349,573.775,278.349,573.775C278.477,523.546,314.221,480.473,363.556,471.101C348.006,467.479,331.817,467.479,316.266,471.101C328.408,427.986,366.581,397.354,411.272,394.84C374.761,366.253,329.814,350.533,283.462,350.107C275.111,349.595,266.676,349.595,258.325,350.107C306.254,319.347,361.98,302.902,418.941,302.817" class="icon-phase1"/><glyph unicode="&#x0049;" d="M1,512C1,118.428,427.036,-127.522,767.864,69.264C926.051,160.563,1023.485,329.359,1023.485,512C1023.485,905.572,597.45,1151.522,256.621,954.736C98.434,863.437,1,694.641,1,512M512.243,744.615C449.189,744.615,441.095,744.615,416.385,744.615C397.085,743.849,378.084,739.801,360.148,732.686C328.834,720.63,304.039,695.834,291.982,664.521C285.251,646.372,281.63,627.2,281.331,607.858C281.331,583.148,281.331,575.053,281.331,512C281.331,448.947,281.331,440.852,281.331,416.142C281.459,396.204,285.038,376.478,291.982,357.775C304.039,326.462,328.834,301.666,360.148,289.609C378.297,282.878,397.469,279.257,416.811,278.959C441.521,278.959,449.615,278.959,512.669,278.959C575.722,278.959,583.817,278.959,608.527,278.959C628.593,279.768,648.361,284.071,666.893,291.74C698.207,303.796,723.002,328.592,735.059,359.905C741.791,378.054,745.412,397.226,745.71,416.568C745.71,441.278,745.71,449.373,745.71,512.426C745.71,575.479,745.71,583.574,745.71,608.284C745.412,627.626,741.791,646.798,735.059,664.947C722.875,696.133,698.122,720.715,666.893,732.686C648.744,739.418,629.573,743.039,610.231,743.337C585.521,743.337,577.426,743.337,514.373,743.337C514.373,743.337,512.243,744.615,512.243,744.615M404.03,512C404.03,428.71,494.221,376.649,566.349,418.272C599.836,437.614,620.456,473.359,620.456,512C620.456,595.29,530.264,647.351,458.136,605.728C424.65,586.386,404.03,550.641,404.03,512M618.325,648.757C618.325,625.155,643.888,610.372,664.337,622.173C673.838,627.669,679.675,637.808,679.675,648.757C679.675,672.36,654.112,687.143,633.663,675.342C624.162,669.846,618.325,659.707,618.325,648.757" class="icon-Fichier 10"/><glyph unicode="&#x004a;" d="M1,512C1,118.428,427.036,-127.522,767.864,69.264C926.051,160.563,1023.485,329.359,1023.485,512C1023.485,905.572,597.45,1151.522,256.621,954.736C98.434,863.437,1,694.641,1,512M326.065,36.118C318.695,84.814,318.695,134.405,326.065,183.101C335.438,223.148,386.136,438.722,386.136,438.722C375.741,462.622,370.501,488.483,370.799,514.556C370.799,585.704,413.402,638.533,463.249,638.533C502.188,639.086,532.65,605.174,528.006,566.533C518.676,508.634,504.446,451.588,485.402,396.118C472.962,347.593,511.22,300.942,561.237,303.669C651.982,303.669,721.852,399.527,721.852,537.988C725.516,656.341,627.059,752.454,508.834,745.893C382.557,751.517,277.327,650.334,277.923,523.929C277.923,482.007,291.215,441.15,315.84,407.195C319.419,403.276,320.697,397.822,319.249,392.71C319.249,392.71,305.189,334.769,305.189,334.769C303.059,325.396,297.947,323.266,288.148,327.953C224.243,357.775,184.195,451.077,184.195,526.059C184.195,687.527,301.355,835.361,522.041,835.361C699.272,835.361,837.308,707.55,837.308,540.118C837.308,363.74,726.112,222.296,571.888,222.296C525.364,220.677,481.227,242.831,454.728,281.089C454.728,281.089,422.775,159.669,422.775,159.669C407.523,112.379,386.221,67.262,359.296,25.467" class="icon-Fichier 11"/><glyph unicode="&#x004b;" d="M1,512C1,118.428,427.036,-127.522,767.864,69.264C926.051,160.563,1023.485,329.359,1023.485,512C1023.485,905.572,597.45,1151.522,256.621,954.736C98.434,863.437,1,694.641,1,512M296.669,589.112C296.669,589.112,387.84,589.112,387.84,589.112C387.84,589.112,387.84,296.426,387.84,296.426C387.84,296.426,296.669,296.426,296.669,296.426C296.669,296.426,296.669,589.112,296.669,589.112M342.254,734.391C382.941,734.391,408.333,690.381,388.011,655.148C367.689,619.915,316.82,619.915,296.498,655.148C291.854,663.2,289.426,672.275,289.426,681.562C289.426,710.746,313.071,734.391,342.254,734.391M444.929,589.112C444.929,589.112,530.136,589.112,530.136,589.112C530.136,589.112,530.136,549.065,530.136,549.065C530.136,549.065,530.136,549.065,530.136,549.065C547.731,579.228,580.408,597.378,615.343,596.355C707.367,596.355,724.408,535.858,724.408,457.041C724.408,457.041,724.408,296.426,724.408,296.426C724.408,296.426,637.497,296.426,637.497,296.426C637.497,296.426,637.497,438.722,637.497,438.722C637.497,472.805,637.497,516.26,590.207,516.26C542.917,516.26,535.675,479.195,535.675,441.278C535.675,441.278,535.675,296.426,535.675,296.426C535.675,296.426,444.929,296.426,444.929,296.426C444.929,296.426,444.929,589.112,444.929,589.112" class="icon-Fichier 12"/><glyph unicode="&#x004c;" d="M320.233,986.971C-45.234,839.188,-113.684,351.202,197.031,108.595C234.585,79.278,276.065,55.337,320.233,37.456C320.233,37.456,320.233,986.971,320.233,986.971M704.307,986.971C704.307,986.971,704.307,37.883,704.307,37.883C1069.603,186.05,1137.499,674.122,826.527,916.387C789.229,945.448,748.134,969.218,704.307,986.971C704.307,986.971,704.307,986.971,704.307,986.971M320.233,37.883C443.393,-11.961,581.147,-11.961,704.307,37.883C704.307,37.883,704.307,986.971,704.307,986.971C581.147,1036.815,443.393,1036.815,320.233,986.971C320.233,986.971,320.233,37.883,320.233,37.883" class="icon-Fichier 13"/><glyph unicode="&#x004d;" d="M125.622,178.059C193.576,99.447,283.827,43.387,384.393,17.339C384.393,17.339,384.393,350.715,384.393,350.715C384.393,350.715,125.622,178.059,125.622,178.059M640.18,17.339C740.747,43.387,830.997,99.447,898.951,178.059C898.951,178.059,640.18,350.715,640.18,350.715C640.18,350.715,640.18,17.339,640.18,17.339M898.951,847.368C830.997,925.979,740.747,982.039,640.18,1008.087C640.18,1008.087,640.18,674.711,640.18,674.711C640.18,674.711,898.951,847.368,898.951,847.368M1007.661,640.607C998.751,675.394,986.175,709.115,970.145,741.216C970.145,741.216,819.231,640.607,819.231,640.607C819.231,640.607,1007.661,640.607,1007.661,640.607M970.145,284.21C986.175,316.311,998.751,350.033,1007.661,384.82C1007.661,384.82,819.231,384.82,819.231,384.82C819.231,384.82,970.145,284.21,970.145,284.21M54.428,741.216C38.399,709.115,25.823,675.394,16.913,640.607C16.913,640.607,205.343,640.607,205.343,640.607C205.343,640.607,54.428,741.216,54.428,741.216M16.913,384.82C25.823,350.033,38.399,316.311,54.428,284.21C54.428,284.21,205.343,384.82,205.343,384.82C205.343,384.82,16.913,384.82,16.913,384.82M384.393,1008.087C283.827,982.039,193.576,925.979,125.622,847.368C125.622,847.368,384.393,674.711,384.393,674.711C384.393,674.711,384.393,1008.087,384.393,1008.087M205.343,384.82C205.343,384.82,54.428,284.21,54.428,284.21C62.315,268.437,70.969,253.047,80.433,238.169C80.433,238.169,376.72,435.977,376.72,435.977C376.72,435.977,6.255,435.977,6.255,435.977C8.941,418.754,12.479,401.659,16.913,384.82C16.913,384.82,205.343,384.82,205.343,384.82M589.023,435.977C589.023,435.977,589.023,6.682,589.023,6.682C606.246,9.239,623.298,12.65,640.18,16.913C640.18,16.913,640.18,350.715,640.18,350.715C640.18,350.715,898.951,180.19,898.951,180.19C910.504,193.832,921.29,208.071,931.351,222.821C931.351,222.821,606.928,435.977,606.928,435.977C606.928,435.977,589.023,435.977,589.023,435.977M958.635,262.895C958.635,262.895,970.145,284.21,970.145,284.21C970.145,284.21,819.231,384.82,819.231,384.82C819.231,384.82,1007.661,384.82,1007.661,384.82C1011.924,401.702,1015.334,418.754,1017.892,435.977C1017.892,435.977,699.011,435.977,699.011,435.977C699.011,435.977,958.635,262.895,958.635,262.895M384.393,674.711C384.393,674.711,125.622,845.236,125.622,845.236C114.069,831.594,103.284,817.355,93.223,802.605C93.223,802.605,417.646,589.449,417.646,589.449C417.646,589.449,435.551,589.449,435.551,589.449C435.551,589.449,435.551,1018.745,435.551,1018.745C418.328,1016.059,401.233,1012.521,384.393,1008.087C384.393,1008.087,384.393,674.711,384.393,674.711M205.343,640.607C205.343,640.607,16.913,640.607,16.913,640.607C12.65,623.725,9.239,606.672,6.682,589.449C6.682,589.449,325.562,589.449,325.562,589.449C325.562,589.449,65.939,762.532,65.939,762.532C65.939,762.532,54.428,741.216,54.428,741.216C54.428,741.216,205.343,640.607,205.343,640.607M640.18,674.711C640.18,674.711,640.18,1008.087,640.18,1008.087C623.341,1012.521,606.246,1016.059,589.023,1018.745C589.023,1018.745,589.023,611.617,589.023,611.617C589.023,611.617,914.299,828.61,914.299,828.61C914.299,828.61,898.951,847.368,898.951,847.368C898.951,847.368,640.18,674.711,640.18,674.711M384.393,350.715C384.393,350.715,384.393,17.339,384.393,17.339C401.275,13.076,418.328,9.666,435.551,7.108C435.551,7.108,435.551,413.809,435.551,413.809C435.551,413.809,110.275,196.816,110.275,196.816C110.275,196.816,125.622,178.059,125.622,178.059C125.622,178.059,384.393,350.715,384.393,350.715M1018.318,589.449C1015.633,606.672,1012.094,623.767,1007.661,640.607C1007.661,640.607,819.231,640.607,819.231,640.607C819.231,640.607,969.719,741.216,969.719,741.216C961.832,756.99,953.178,772.379,943.714,787.258C943.714,787.258,647.854,589.449,647.854,589.449C647.854,589.449,1018.318,589.449,1018.318,589.449M589.023,435.977C589.023,435.977,606.928,435.977,606.928,435.977C606.928,435.977,931.351,219.411,931.351,219.411C941.028,233.351,950.109,247.547,958.635,262.042C958.635,262.042,699.011,435.977,699.011,435.977C699.011,435.977,1017.892,435.977,1017.892,435.977C1025.566,486.836,1025.566,538.59,1017.892,589.449C1017.892,589.449,647.854,589.449,647.854,589.449C647.854,589.449,944.14,786.831,944.14,786.831C935.06,801.326,925.255,815.522,914.725,829.463C914.725,829.463,589.023,611.617,589.023,611.617C589.023,611.617,589.023,1018.745,589.023,1018.745C538.164,1026.418,486.41,1026.418,435.551,1018.745C435.551,1018.745,435.551,589.449,435.551,589.449C435.551,589.449,417.646,589.449,417.646,589.449C417.646,589.449,93.223,806.015,93.223,806.015C83.545,792.075,74.465,777.879,65.939,763.384C65.939,763.384,325.562,589.449,325.562,589.449C325.562,589.449,6.255,589.449,6.255,589.449C-1.418,538.59,-1.418,486.836,6.255,435.977C6.255,435.977,376.72,435.977,376.72,435.977C376.72,435.977,80.433,238.595,80.433,238.595C89.514,223.887,99.319,209.648,109.849,195.964C109.849,195.964,435.124,412.956,435.124,412.956C435.124,412.956,435.124,6.255,435.124,6.255C485.983,-1.418,537.738,-1.418,588.597,6.255C588.597,6.255,589.023,435.977,589.023,435.977" class="icon-Fichier 14"/><glyph unicode="&#x004e;" d="M0,1024C0,1024,1024,1024,1024,1024C1024,1024,1024,0,1024,0C1024,0,0,0,0,0C0,0,0,1024,0,1024M508.587,98.133C508.587,98.133,157.013,98.133,157.013,98.133C133.234,97.82,113.778,117.02,113.778,140.8C113.778,140.8,113.778,783.076,113.778,783.076C114.233,806.542,133.547,825.202,157.013,824.889C157.013,824.889,209.351,824.889,209.351,824.889M628.907,824.889C628.907,824.889,682.667,824.889,682.667,824.889C706.219,824.889,725.333,805.774,725.333,782.222C725.333,782.222,725.333,542.72,725.333,542.72M515.982,275.911C515.982,124.388,680.021,29.696,811.236,105.444C872.135,140.601,909.653,205.596,909.653,275.911C909.653,427.435,745.614,522.126,614.4,446.379C553.5,411.221,515.982,346.226,515.982,275.911M622.933,283.307C622.933,283.307,702.862,218.453,702.862,218.453C702.862,218.453,805.547,351.004,805.547,351.004M561.493,875.236C561.493,875.236,490.382,875.236,490.382,875.236C490.382,929.991,431.132,964.181,383.716,936.818C361.7,924.103,348.16,900.636,348.16,875.236C348.16,875.236,277.049,875.236,277.049,875.236C277.049,875.236,277.049,768,277.049,768C277.049,768,561.493,768,561.493,768C561.493,768,561.493,875.236,561.493,875.236M242.062,610.987C242.062,610.987,242.062,598.756,242.062,598.756C242.062,598.756,254.293,598.756,254.293,598.756C254.293,598.756,254.293,610.987,254.293,610.987C254.293,610.987,242.062,610.987,242.062,610.987M333.369,604.729C333.369,604.729,333.369,604.729,333.369,604.729C333.369,604.729,622.364,604.729,622.364,604.729C622.364,604.729,622.364,604.729,622.364,604.729C622.364,604.729,333.369,604.729,333.369,604.729M242.062,496.356C242.062,496.356,242.062,484.124,242.062,484.124C242.062,484.124,254.293,484.124,254.293,484.124C254.293,484.124,254.293,496.356,254.293,496.356C254.293,496.356,242.062,496.356,242.062,496.356M333.369,490.382C333.369,490.382,333.369,490.382,333.369,490.382C333.369,490.382,551.253,490.382,551.253,490.382C551.253,490.382,551.253,490.382,551.253,490.382C551.253,490.382,333.369,490.382,333.369,490.382M242.062,381.724C242.062,381.724,242.062,369.493,242.062,369.493C242.062,369.493,254.293,369.493,254.293,369.493C254.293,369.493,254.293,381.724,254.293,381.724C254.293,381.724,242.062,381.724,242.062,381.724M333.369,375.751C333.369,375.751,333.369,375.751,333.369,375.751C333.369,375.751,464.213,375.751,464.213,375.751C464.213,375.751,464.213,375.751,464.213,375.751C464.213,375.751,333.369,375.751,333.369,375.751M242.062,267.378C242.062,267.378,242.062,255.147,242.062,255.147C242.062,255.147,254.293,255.147,254.293,255.147C254.293,255.147,254.293,267.378,254.293,267.378C254.293,267.378,242.062,267.378,242.062,267.378M333.369,261.12C333.369,261.12,333.369,261.12,333.369,261.12C333.369,261.12,444.587,261.12,444.587,261.12C444.587,261.12,444.587,261.12,444.587,261.12C444.587,261.12,333.369,261.12,333.369,261.12" class="icon-Fichier 15"/><glyph unicode="&#x004f;" d="M0,1024C0,1024,1024,1024,1024,1024C1024,1024,1024,0,1024,0C1024,0,0,0,0,0C0,0,0,1024,0,1024M615.538,748.373C636.615,802.901,708.836,814.165,745.5,768.626C756.622,754.859,762.567,737.621,762.311,719.929M371.769,785.92C400.185,837.006,473.259,838.201,503.296,788.053C514.958,768.626,517.291,744.988,509.724,723.627M483.556,714.524C536.121,740.096,596.679,699.193,592.555,640.853C592.014,633.372,590.364,625.977,587.662,618.951M317.156,707.982C365.084,741.461,431.275,710.485,436.309,652.26C437.333,640.228,435.513,628.139,430.933,616.96M122.311,680.391C148.992,732.416,221.98,736.057,253.696,686.933C267.406,665.714,269.653,639.061,259.698,615.822M722.489,682.667C751.189,733.582,824.263,734.35,854.016,684.032C865.934,663.865,867.897,639.317,859.307,617.529M235.52,223.573C23.609,354.987,36.409,614.684,36.409,614.684C36.409,614.684,956.587,614.684,956.587,614.684C956.587,614.684,968.249,354.987,757.476,223.573M235.52,223.289C235.52,223.289,235.52,128.569,235.52,128.569C235.52,128.569,444.587,128.569,444.587,128.569C444.587,128.569,560.356,128.569,560.356,128.569C560.356,128.569,756.622,128.569,756.622,128.569C756.622,128.569,756.622,223.289,756.622,223.289M809.813,720.782C809.813,720.782,809.813,720.782,809.813,720.782C809.813,720.782,988.729,895.431,988.729,895.431C988.729,895.431,988.729,895.431,988.729,895.431C988.729,895.431,809.813,720.782,809.813,720.782M144.213,506.311C157.383,458.866,183.353,415.943,219.307,382.293" class="icon-Fichier 16"/><glyph unicode="&#x0050;" d="M0,1024C0,1024,1024,1024,1024,1024C1024,1024,1024,0,1024,0C1024,0,0,0,0,0C0,0,0,1024,0,1024M178.347,196.551C178.347,196.551,840.818,196.551,840.818,196.551C880.014,196.693,911.787,228.466,911.929,267.662C911.929,267.662,911.929,827.449,911.929,827.449C911.929,827.449,245.191,827.449,245.191,827.449C245.191,827.449,245.191,267.662,245.191,267.662C246.3,229.689,216.576,197.945,178.631,196.551C140.686,197.945,110.962,229.689,112.071,267.662C112.071,267.662,112.071,733.867,112.071,733.867M329.956,723.911C329.956,723.911,329.956,723.911,329.956,723.911C329.956,723.911,825.458,723.911,825.458,723.911C825.458,723.911,825.458,723.911,825.458,723.911C825.458,723.911,329.956,723.911,329.956,723.911M329.956,617.529C329.956,617.529,329.956,617.529,329.956,617.529C329.956,617.529,825.458,617.529,825.458,617.529C825.458,617.529,825.458,617.529,825.458,617.529C825.458,617.529,329.956,617.529,329.956,617.529M329.956,511.147C329.956,511.147,329.956,511.147,329.956,511.147C329.956,511.147,548.124,511.147,548.124,511.147C548.124,511.147,548.124,511.147,548.124,511.147C548.124,511.147,329.956,511.147,329.956,511.147M329.956,404.764C329.956,404.764,329.956,404.764,329.956,404.764C329.956,404.764,548.124,404.764,548.124,404.764C548.124,404.764,548.124,404.764,548.124,404.764C548.124,404.764,329.956,404.764,329.956,404.764M329.956,298.382C329.956,298.382,329.956,298.382,329.956,298.382C329.956,298.382,548.124,298.382,548.124,298.382C548.124,298.382,548.124,298.382,548.124,298.382C548.124,298.382,329.956,298.382,329.956,298.382M626.916,510.009C626.916,510.009,626.916,298.667,626.916,298.667C626.916,298.667,800.996,298.667,800.996,298.667C800.996,298.667,800.996,510.009,800.996,510.009C800.996,510.009,626.916,510.009,626.916,510.009" class="icon-Fichier 17"/><glyph unicode="&#x0051;" d="M0,1024C0,1024,1024,1024,1024,1024C1024,1024,1024,0,1024,0C1024,0,0,0,0,0C0,0,0,1024,0,1024M93.867,512C93.867,190.123,442.311,-11.065,721.067,149.874C850.432,224.569,930.133,362.61,930.133,512C930.133,833.877,581.689,1035.065,302.933,874.126C173.568,799.431,93.867,661.39,93.867,512M487.253,304.356C487.253,295.168,497.209,289.422,505.173,294.002C508.871,296.135,511.147,300.089,511.147,304.356C511.147,313.543,501.191,319.289,493.227,314.709C489.529,312.576,487.253,308.622,487.253,304.356M387.129,631.182C392.277,695.296,447.801,743.481,512,739.556C576.597,743.452,632.32,694.613,636.871,630.044C636.871,630.044,639.716,580.267,574.578,535.609C527.758,501.077,499.371,446.976,497.493,388.836" class="icon-Fichier 18"/><glyph unicode="&#x0052;" d="M0,1024C0,1024,1024,1024,1024,1024C1024,1024,1024,0,1024,0C1024,0,0,0,0,0C0,0,0,1024,0,1024M93.867,512C93.867,190.123,442.311,-11.065,721.067,149.874C850.432,224.569,930.133,362.61,930.133,512C930.133,833.877,581.689,1035.065,302.933,874.126C173.568,799.431,93.867,661.39,93.867,512M422.684,646.258C422.684,646.258,536.462,630.044,572.871,717.653C572.871,717.653,611.271,646.827,667.307,646.827M426.667,432.924C426.667,411.876,426.667,366.364,426.667,366.364C426.667,366.364,431.502,337.92,263.111,294.969M597.333,432.924C597.333,411.876,597.333,366.364,597.333,366.364C597.333,366.364,592.498,337.92,760.889,294.969M564.338,422.4C576.341,425.159,587.605,430.507,597.333,438.044C636.018,466.489,659.911,551.822,667.307,611.84C677.831,700.587,667.307,806.969,511.147,810.951C511.147,810.951,511.147,810.951,511.147,810.951C356.409,807.538,344.462,701.156,354.987,611.84C362.098,551.538,386.276,465.351,424.676,438.044C434.83,430.336,446.606,424.988,459.093,422.4" class="icon-Fichier 19"/><glyph unicode="&#x0053;" d="M0,1024C0,1024,1024,1024,1024,1024C1024,1024,1024,0,1024,0C1024,0,0,0,0,0C0,0,0,1024,0,1024M868.978,467.627C868.978,467.627,816.071,211.627,816.071,211.627C810.098,188.046,789.191,171.321,764.871,170.667C764.871,170.667,259.129,170.667,259.129,170.667C234.667,171.548,213.845,188.672,208.213,212.48C208.213,212.48,155.307,468.48,155.307,468.48M78.222,649.956C78.222,649.956,78.222,540.16,78.222,540.16C78.222,540.16,945.493,540.16,945.493,540.16C945.493,540.16,945.493,649.956,945.493,649.956C945.493,649.956,78.222,649.956,78.222,649.956M288.427,435.484C288.427,435.484,288.427,435.484,288.427,435.484C288.427,435.484,310.329,275.058,310.329,275.058C310.329,275.058,310.329,275.058,310.329,275.058C310.329,275.058,288.427,435.484,288.427,435.484M400.498,435.484C400.498,435.484,400.498,435.484,400.498,435.484C400.498,435.484,410.738,275.058,410.738,275.058C410.738,275.058,410.738,275.058,410.738,275.058C410.738,275.058,400.498,435.484,400.498,435.484M735.573,435.484C735.573,435.484,735.573,435.484,735.573,435.484C735.573,435.484,713.671,275.058,713.671,275.058C713.671,275.058,713.671,275.058,713.671,275.058C713.671,275.058,735.573,435.484,735.573,435.484M623.502,435.484C623.502,435.484,623.502,435.484,623.502,435.484C623.502,435.484,613.262,275.058,613.262,275.058C613.262,275.058,613.262,275.058,613.262,275.058C613.262,275.058,623.502,435.484,623.502,435.484M512,435.484C512,435.484,512,435.484,512,435.484C512,435.484,512,275.058,512,275.058C512,275.058,512,275.058,512,275.058C512,275.058,512,435.484,512,435.484M275.342,653.084C275.342,653.084,275.342,653.084,275.342,653.084C275.342,653.084,442.88,854.471,442.88,854.471C442.88,854.471,442.88,854.471,442.88,854.471C442.88,854.471,275.342,653.084,275.342,653.084M748.658,653.084C748.658,653.084,748.658,653.084,748.658,653.084C748.658,653.084,581.12,854.471,581.12,854.471C581.12,854.471,581.12,854.471,581.12,854.471C581.12,854.471,748.658,653.084,748.658,653.084" class="icon-Fichier 20"/><glyph unicode="&#x0054;" d="M0,108.289C0,108.289,1024,108.289,1024,108.289C1024,108.289,1024,0.5,1024,0.5C1024,0.5,0,0.5,0,0.5C0,0.5,0,108.289,0,108.289M386.964,417.106C386.964,417.106,619.789,354.588,619.789,354.588C619.789,354.588,905.971,278.058,905.971,278.058C966.117,261.889,1021.251,316.862,1005.191,377.063C997.699,405.034,975.926,426.861,948.008,434.353C948.008,434.353,661.827,510.883,661.827,510.883C661.827,510.883,512,997.014,512,997.014C512,997.014,410.678,1024.5,410.678,1024.5C410.678,1024.5,410.678,578.252,410.678,578.252C410.678,578.252,142.821,647.237,142.821,647.237C142.821,647.237,92.699,774.967,92.699,774.967C92.699,774.967,14.552,795.986,14.552,795.986C14.552,795.986,14.552,517.351,14.552,517.351C14.552,517.351,100.783,494.176,100.783,494.176C100.783,494.176,386.964,417.106,386.964,417.106" class="icon-Fichier 25"/><glyph unicode="&#x0055;" d="C0,1024,0,0,0,0C0,0,1024,0,1024,0C1024,0,1024,1024,1024,1024C1024,1024,0,1024,0,1024M0,1024C0,1024,1024,1024,1024,1024C1024,1024,1024,0,1024,0C1024,0,0,0,0,0C0,0,0,1024,0,1024M106.667,213.333C106.667,213.333,917.333,213.333,917.333,213.333C917.333,213.333,917.333,128,917.333,128C917.333,128,106.667,128,106.667,128C106.667,128,106.667,213.333,106.667,213.333M941.653,612.693C932.48,646.869,897.323,667.136,863.147,657.92C863.147,657.92,636.587,597.333,636.587,597.333C636.587,597.333,341.333,871.68,341.333,871.68C341.333,871.68,258.987,849.92,258.987,849.92C258.987,849.92,435.627,544,435.627,544C435.627,544,222.293,487.253,222.293,487.253C222.293,487.253,140.373,554.667,140.373,554.667C140.373,554.667,78.507,538.027,78.507,538.027C78.507,538.027,156.16,403.2,156.16,403.2C156.16,403.2,189.013,346.453,189.013,346.453C189.013,346.453,256,363.093,256,363.093C256,363.093,482.56,423.68,482.56,423.68C482.56,423.68,668.16,473.173,668.16,473.173C668.16,473.173,896,533.76,896,533.76C930.261,543.147,950.613,578.304,941.653,612.693C941.653,612.693,941.653,612.693,941.653,612.693" class="icon-Fichier 26"/><glyph unicode="&#x0056;" d="M600.747,372.48C600.747,372.48,600.747,207.787,600.747,207.787C660.053,207.787,720.213,207.787,746.667,233.813C759.979,249.387,766.464,269.696,764.587,290.133C765.995,308.864,759.68,327.381,747.093,341.333C718.933,369.92,656.213,372.48,600.747,372.48C600.747,372.48,600.747,372.48,600.747,372.48M720.64,512C722.261,532.096,715.605,551.936,702.293,567.04C672.768,587.563,636.971,597.077,601.173,593.92C601.173,593.92,601.173,436.053,601.173,436.053C637.013,431.616,673.28,439.893,703.573,459.52C716.16,473.941,722.347,492.928,720.64,512C720.64,512,720.64,512,720.64,512M292.267,448C267.605,410.197,246.741,370.048,229.973,328.107C229.973,328.107,430.507,328.107,430.507,328.107C430.507,328.107,430.507,584.107,430.507,584.107C373.333,551.595,325.675,504.661,292.267,448C292.267,448,292.267,448,292.267,448M981.333,1024C981.333,1024,42.667,1024,42.667,1024C19.115,1024,0,1004.885,0,981.333C0,981.333,0,42.667,0,42.667C0,19.115,19.115,0,42.667,0C42.667,0,981.333,0,981.333,0C1004.885,0,1024,19.115,1024,42.667C1024,42.667,1024,981.333,1024,981.333C1024,1004.885,1004.885,1024,981.333,1024C981.333,1024,981.333,1024,981.333,1024M493.653,145.067C493.653,145.067,430.507,145.067,430.507,145.067C430.507,145.067,430.507,264.96,430.507,264.96C430.507,264.96,209.067,264.96,209.067,264.96C197.76,225.963,191.744,185.643,191.147,145.067C191.147,145.067,128,145.067,128,145.067C133.333,265.557,171.861,382.208,239.36,482.133C310.187,590.933,393.387,655.787,462.08,655.787C479.531,655.787,493.653,641.664,493.653,624.213C493.653,624.213,493.653,145.067,493.653,145.067M792.32,187.733C752.213,148.053,689.067,145.067,624.64,145.067C624.64,145.067,539.307,145.067,539.307,145.067C539.307,145.067,539.307,657.067,539.307,657.067C539.307,657.067,602.453,657.067,602.453,657.067C654.635,660.565,706.176,644.096,746.667,610.987C771.968,584.405,785.365,548.651,783.787,512C785.621,476.459,772.992,441.685,748.8,415.573C764.672,408.832,779.179,399.104,791.467,386.987C816.427,361.429,829.568,326.656,827.733,290.987C830.08,253.397,816.811,216.491,791.04,189.013C791.04,189.013,792.32,187.733,792.32,187.733M755.2,652.8C641.237,652.757,569.941,776.064,626.859,874.795C627.669,876.203,628.48,877.568,629.333,878.933C689.109,842.709,725.931,778.155,726.613,708.267C726.613,703.573,726.613,698.88,726.613,694.187C768.512,743.637,833.451,767.189,897.28,756.053C877.653,694.229,820.053,652.373,755.2,652.8C755.2,652.8,755.2,652.8,755.2,652.8" class="icon-Fichier 27"/><glyph unicode="&#x0057;" d="C0,1024,0,0,0,0C0,0,1024,0,1024,0C1024,0,1024,1024,1024,1024C1024,1024,0,1024,0,1024M512,842.24C487.552,817.749,472.448,785.408,469.333,750.933C471.893,715.691,487.04,682.539,512,657.493C536.533,681.941,551.637,714.283,554.667,748.8C552.064,784.043,536.917,817.195,512,842.24M500.907,651.093C500.907,651.093,507.307,614.827,507.307,614.827C499.797,614.784,492.629,617.728,487.253,622.933C452.181,656.683,431.019,702.336,427.947,750.933C432.299,800.427,455.723,846.336,493.227,878.933C504.277,888.875,521.003,888.875,532.053,878.933C567.381,845.355,588.587,799.573,591.36,750.933C586.709,701.483,563.371,655.701,526.08,622.933C520.832,618.496,514.176,616.107,507.307,616.107M322.987,350.293C322.987,350.293,322.987,350.293,322.987,350.293C322.987,350.293,322.987,350.293,322.987,350.293M334.507,350.293C335.36,306.517,350.336,264.149,377.173,229.547C405.291,196.48,446.848,177.792,490.24,178.773C490.496,268.117,421.845,342.528,332.8,349.44M529.067,167.68C529.067,167.68,529.067,167.68,529.067,167.68M486.4,138.667C433.792,139.051,383.915,162.048,349.44,201.813C313.6,247.253,294.187,303.488,294.4,361.387C294.869,377.515,308.565,390.101,324.693,389.12C402.987,389.419,474.325,344.107,507.307,273.067C522.325,240.981,530.475,206.08,531.2,170.667C534.101,164.736,534.101,157.824,531.2,151.893C528.043,146.133,522.368,142.165,515.84,141.227C506.795,139.776,497.664,139.051,488.533,139.093M700.587,350.293C700.587,350.293,700.587,350.293,700.587,350.293M529.92,179.627C573.312,178.645,614.869,197.333,642.987,230.4C669.653,265.088,684.629,307.371,685.653,351.147C596.608,344.235,527.957,269.824,528.213,180.48M532.48,141.653C523.349,141.611,514.219,142.336,505.173,143.787C498.645,144.725,492.971,148.693,489.813,154.453C487.04,160.256,487.04,166.997,489.813,172.8C484.779,290.56,577.621,389.376,695.467,391.68C711.424,392.661,725.077,380.331,725.76,364.373C726.187,306.475,706.773,250.155,670.72,204.8C636.245,165.035,586.368,142.037,533.76,141.653M386.987,597.333C386.987,597.333,386.987,597.333,386.987,597.333M386.987,586.24C382.336,549.547,391.467,512.469,412.587,482.133C431.232,454.656,460.416,436.139,493.227,430.933C501.504,502.528,454.357,568.832,384,584.533M499.2,429.227C499.2,429.227,499.2,429.227,499.2,429.227C499.2,429.227,499.2,429.227,499.2,429.227M494.507,390.4C494.507,390.4,494.507,390.4,494.507,390.4C448.299,393.515,406.059,417.579,379.733,455.68C349.952,498.389,338.133,551.125,346.88,602.453C349.44,619.989,367.147,630.955,384,625.493C483.755,607.573,549.675,511.701,530.773,412.16C528.171,399.019,516.821,389.461,503.467,389.12C503.467,389.12,497.493,389.12,497.493,389.12M637.013,597.333C637.013,597.333,637.013,597.333,637.013,597.333C637.013,597.333,637.013,597.333,637.013,597.333M637.013,586.24C567.125,569.216,521.301,502.229,530.773,430.933C563.584,436.139,592.768,454.656,611.413,482.133C633.173,511.616,643.371,548.053,640,584.533M524.373,429.227C524.373,429.227,524.373,429.227,524.373,429.227M529.493,390.4C529.493,390.4,523.52,390.4,523.52,390.4C510.293,390.955,499.2,400.469,496.64,413.44C477.483,513.067,543.531,609.067,643.413,626.773C659.115,629.888,674.304,619.477,677.12,603.733C685.867,552.405,674.048,499.669,644.267,456.96C617.941,418.859,575.701,394.795,529.493,391.68" class="icon-Fichier 28"/><glyph unicode="&#x0058;" d="C0,1024,0,0,0,0C0,0,1024,0,1024,0C1024,0,1024,1024,1024,1024C1024,1024,0,1024,0,1024M585.387,885.333C585.387,885.333,438.613,885.333,438.613,885.333C386.731,885.205,354.389,828.971,380.459,784.085C385.579,775.253,392.619,767.744,401.067,762.027C401.067,762.027,401.067,755.627,401.067,755.627C401.067,755.627,330.24,682.667,330.24,682.667C330.24,682.667,330.24,682.667,330.24,682.667C330.24,682.667,330.24,682.667,330.24,682.667C314.581,666.197,305.877,644.352,305.92,621.653C305.92,621.653,305.92,227.84,305.92,227.84C305.92,179.584,344.277,140.032,392.533,138.667C392.533,138.667,631.467,138.667,631.467,138.667C680.363,138.88,720,178.517,720.213,227.413C720.213,227.413,720.213,621.227,720.213,621.227C720.171,645.589,710.144,668.885,692.48,685.653C692.48,685.653,622.507,755.2,622.507,755.2C622.507,755.2,622.507,762.027,622.507,762.027C665.515,791.04,661.035,855.765,614.357,878.507C605.227,882.987,595.157,885.291,584.96,885.333M584.96,845.227C606.165,845.227,619.392,822.315,608.811,803.968C603.861,795.435,594.773,790.187,584.96,790.187C584.96,790.187,582.4,790.187,582.4,790.187C582.4,790.187,582.4,738.987,582.4,738.987C582.4,738.987,582.4,738.987,582.4,738.987C582.4,738.987,665.173,657.067,665.173,657.067C674.944,647.893,680.533,635.051,680.533,621.653C680.533,621.653,680.533,227.84,680.533,227.84C680.533,200.747,658.56,178.773,631.467,178.773C631.467,178.773,392.533,178.773,392.533,178.773C365.44,178.773,343.467,200.747,343.467,227.84C343.467,227.84,343.467,621.227,343.467,621.227C343.509,634.027,348.544,646.272,357.547,655.36C357.547,655.36,357.547,655.36,357.547,655.36C357.547,655.36,440.747,738.133,440.747,738.133C440.747,738.133,440.747,790.613,440.747,790.613C440.747,790.613,438.187,790.613,438.187,790.613C416.981,790.613,403.755,813.568,414.336,831.915C419.285,840.405,428.373,845.653,438.187,845.653C438.187,845.653,584.96,845.227,584.96,845.227M417.28,419.84C406.187,419.84,397.227,428.8,397.227,439.893C397.227,439.893,397.227,576,397.227,576C397.312,593.451,404.011,610.261,416,622.933C416,622.933,416,622.933,416,622.933C416,622.933,416,622.933,416,622.933C416,622.933,469.333,674.56,469.333,674.56C481.451,684.117,499.371,676.949,501.589,661.675C502.357,656.213,500.907,650.709,497.493,646.4C497.493,646.4,445.867,597.333,445.867,597.333C445.867,597.333,445.867,597.333,445.867,597.333C440.661,591.957,437.76,584.747,437.76,577.28C437.76,577.28,437.76,441.173,437.76,441.173C437.76,430.08,428.8,421.12,417.707,421.12" class="icon-Fichier 29"/><glyph unicode="&#x0059;" d="C0,1024,0,0,0,0C0,0,1024,0,1024,0C1024,0,1024,1024,1024,1024C1024,1024,0,1024,0,1024M391.68,885.333C391.68,885.333,376.747,885.333,376.747,885.333C213.205,870.528,127.019,684.203,221.611,549.973C235.904,529.707,253.611,512.085,273.92,497.92C273.92,497.92,277.333,495.36,277.333,495.36C387.84,424.96,392.107,418.987,427.947,294.4C427.947,294.4,427.947,294.4,427.947,294.4C427.947,294.4,427.947,294.4,427.947,294.4C427.947,294.4,427.947,294.4,427.947,294.4C454.784,204.501,537.216,142.677,631.04,142.08C631.04,142.08,645.973,142.08,645.973,142.08C809.515,156.885,895.701,343.211,801.109,477.44C786.816,497.707,769.109,515.328,748.8,529.493C748.8,529.493,744.96,532.053,744.96,532.053C636.16,599.893,631.893,605.867,597.333,730.453C597.333,730.453,597.333,730.453,597.333,730.453C597.333,730.453,597.333,730.453,597.333,730.453C597.333,730.453,597.333,730.453,597.333,730.453C571.179,822.272,487.168,885.547,391.68,885.333M391.68,842.667C467.2,842.283,533.504,792.32,554.667,719.787C554.667,719.787,554.667,719.787,554.667,719.787C554.667,719.787,554.667,719.787,554.667,719.787C593.493,585.387,604.587,570.453,725.333,494.507C725.333,494.507,725.333,494.507,725.333,494.507C834.347,421.163,823.04,257.323,705.024,199.595C686.635,190.592,666.752,185.003,646.4,183.04C646.4,183.04,634.453,183.04,634.453,183.04C558.592,182.229,491.307,231.595,469.333,304.213C469.333,304.213,469.333,304.213,469.333,304.213C469.333,304.213,469.333,304.213,469.333,304.213C430.507,438.613,419.413,453.547,300.8,529.067C300.8,529.067,298.667,529.067,298.667,529.067C188.629,600.832,197.547,764.843,314.752,824.235C334.976,834.517,357.077,840.619,379.733,842.24C379.733,842.24,391.68,842.24,391.68,842.24M444.16,649.387C426.752,631.936,397.013,639.915,390.613,663.68C384.213,687.488,405.973,709.291,429.781,702.933C435.2,701.44,440.192,698.581,444.16,694.613C456.619,682.112,456.619,661.888,444.16,649.387M394.667,735.573C377.259,718.123,347.52,726.101,341.12,749.867C334.72,773.675,356.48,795.477,380.288,789.12C385.707,787.627,390.699,784.768,394.667,780.8C407.125,768.299,407.125,748.075,394.667,735.573M328.96,650.667C311.552,633.216,281.813,641.195,275.413,664.96C269.013,688.768,290.773,710.571,314.581,704.213C320,702.72,324.992,699.861,328.96,695.893C341.419,683.392,341.419,663.168,328.96,650.667" class="icon-Fichier 30"/><glyph unicode="&#x005a;" d="M434.347,640M0,1024C0,1024,1024,1024,1024,1024C1024,1024,1024,0,1024,0C1024,0,0,0,0,0C0,0,0,1024,0,1024M917.333,341.333C917.333,341.333,917.333,426.667,917.333,426.667C917.333,426.667,576,640,576,640C576,640,576,874.667,576,874.667C576,923.947,522.667,954.709,480,930.091C460.203,918.656,448,897.536,448,874.667C448,874.667,448,640,448,640C448,640,106.667,426.667,106.667,426.667C106.667,426.667,106.667,341.333,106.667,341.333C106.667,341.333,448,448,448,448C448,448,448,213.333,448,213.333C448,213.333,362.667,149.333,362.667,149.333C362.667,149.333,362.667,85.333,362.667,85.333C362.667,85.333,512,128,512,128C512,128,661.333,85.333,661.333,85.333C661.333,85.333,661.333,149.333,661.333,149.333C661.333,149.333,576,213.333,576,213.333C576,213.333,576,448,576,448C576,448,917.333,341.333,917.333,341.333" class="icon-Fichier 32"/><glyph unicode="&#x0061;" d="M0,1024C0,1024,1024,1024,1024,1024C1024,1024,1024,0,1024,0C1024,0,0,0,0,0C0,0,0,1024,0,1024M512,938.667C183.552,938.667,-21.717,583.125,142.507,298.667C306.731,14.208,717.269,14.208,881.493,298.667C918.955,363.52,938.667,437.12,938.667,512C938.667,747.648,747.648,938.667,512,938.667C512,938.667,512,938.667,512,938.667M469.333,173.653C298.795,195.157,170.837,340.096,170.667,512C170.795,537.728,173.824,563.328,179.627,588.373C179.627,588.373,384,384,384,384C384,384,384,341.333,384,341.333C384,294.187,422.187,256,469.333,256C469.333,256,469.333,173.653,469.333,173.653M763.733,282.027C752.427,317.269,719.701,341.248,682.667,341.333C682.667,341.333,640,341.333,640,341.333C640,341.333,640,469.333,640,469.333C640,492.885,620.885,512,597.333,512C597.333,512,341.333,512,341.333,512C341.333,512,341.333,597.333,341.333,597.333C341.333,597.333,426.667,597.333,426.667,597.333C450.219,597.333,469.333,616.448,469.333,640C469.333,640,469.333,725.333,469.333,725.333C469.333,725.333,554.667,725.333,554.667,725.333C601.813,725.333,640,763.52,640,810.667C640,810.667,640,828.16,640,828.16C859.989,738.731,923.691,457.557,763.733,282.027C763.733,282.027,763.733,282.027,763.733,282.027M85.333,512C85.333,183.552,440.875,-21.717,725.333,142.507C857.344,218.709,938.667,359.552,938.667,512C938.667,840.448,583.125,1045.717,298.667,881.493C166.656,805.291,85.333,664.448,85.333,512" class="icon-Fichier 33"/><glyph unicode="&#x0062;" d="M512,938.667C183.552,938.667,-21.717,583.125,142.507,298.667C306.731,14.208,717.269,14.208,881.493,298.667C918.955,363.52,938.667,437.12,938.667,512C938.667,747.648,747.648,938.667,512,938.667C512,938.667,512,938.667,512,938.667M512,170.667C249.259,170.667,85.035,455.125,216.405,682.667C347.776,910.208,676.224,910.208,807.595,682.667C837.547,630.784,853.333,571.904,853.333,512C853.333,323.499,700.501,170.667,512,170.667C512,170.667,512,170.667,512,170.667M0,1024C0,1024,1024,1024,1024,1024C1024,1024,1024,0,1024,0C1024,0,0,0,0,0C0,0,0,1024,0,1024M533.333,725.333C533.333,725.333,469.333,725.333,469.333,725.333C469.333,725.333,469.333,469.333,469.333,469.333C469.333,469.333,693.333,334.933,693.333,334.933C693.333,334.933,725.333,387.413,725.333,387.413C725.333,387.413,533.333,501.333,533.333,501.333C533.333,501.333,533.333,725.333,533.333,725.333" class="icon-Fichier 34"/><glyph unicode="&#x0063;" d="M0,1024C0,1024,1024,1024,1024,1024C1024,1024,1024,0,1024,0C1024,0,0,0,0,0C0,0,0,1024,0,1024M917.333,341.333C917.333,341.333,917.333,426.667,917.333,426.667C917.333,426.667,576,640,576,640C576,640,576,874.667,576,874.667C576,923.947,522.667,954.709,480,930.091C460.203,918.656,448,897.536,448,874.667C448,874.667,448,640,448,640C448,640,106.667,426.667,106.667,426.667C106.667,426.667,106.667,341.333,106.667,341.333C106.667,341.333,448,448,448,448C448,448,448,213.333,448,213.333C448,213.333,362.667,149.333,362.667,149.333C362.667,149.333,362.667,85.333,362.667,85.333C362.667,85.333,512,128,512,128C512,128,661.333,85.333,661.333,85.333C661.333,85.333,661.333,149.333,661.333,149.333C661.333,149.333,576,213.333,576,213.333C576,213.333,576,448,576,448C576,448,917.333,341.333,917.333,341.333" class="icon-Fichier 35"/><glyph unicode="&#x0064;" d="M0,1024C0,1024,1024,1024,1024,1024C1024,1024,1024,0,1024,0C1024,0,0,0,0,0C0,0,0,1024,0,1024M0,1024C0,1024,1024,1024,1024,1024C1024,1024,1024,0,1024,0C1024,0,0,0,0,0C0,0,0,1024,0,1024M763.733,282.027C752.427,317.269,719.701,341.248,682.667,341.333C682.667,341.333,640,341.333,640,341.333C640,341.333,640,469.333,640,469.333C640,492.885,620.885,512,597.333,512C597.333,512,341.333,512,341.333,512C341.333,512,341.333,597.333,341.333,597.333C341.333,597.333,426.667,597.333,426.667,597.333C450.219,597.333,469.333,616.448,469.333,640C469.333,640,469.333,725.333,469.333,725.333C469.333,725.333,554.667,725.333,554.667,725.333C601.813,725.333,640,763.52,640,810.667C640,810.667,640,919.04,640,919.04C421.931,987.52,188.672,872.021,110.933,657.067C110.933,657.067,179.627,588.373,179.627,588.373C179.627,588.373,312.32,455.68,312.32,455.68C312.32,455.68,384,384,384,384C384,384,384,341.333,384,341.333C384,294.187,422.187,256,469.333,256C469.333,256,469.333,87.467,469.333,87.467C574.08,76.843,679.04,105.6,763.733,168.107C763.733,168.107,763.733,282.027,763.733,282.027M512,896C807.595,896,992.341,576,844.544,320C696.747,64,327.253,64,179.456,320C145.749,378.368,128,444.587,128,512C128,724.096,299.904,896,512,896M512,938.667C183.552,938.667,-21.717,583.125,142.507,298.667C306.731,14.208,717.269,14.208,881.493,298.667C918.955,363.52,938.667,437.12,938.667,512C938.667,747.648,747.648,938.667,512,938.667C512,938.667,512,938.667,512,938.667" class="icon-Fichier 36"/><glyph unicode="&#x0065;" d="M0,1024C0,1024,1024,1024,1024,1024C1024,1024,1024,0,1024,0C1024,0,0,0,0,0C0,0,0,1024,0,1024M512,896C512,896,213.333,896,213.333,896C166.187,896,128,857.813,128,810.667C128,810.667,128,213.333,128,213.333C128,166.187,166.187,128,213.333,128C213.333,128,810.667,128,810.667,128C857.813,128,896,166.187,896,213.333C896,213.333,896,512,896,512M896,597.333C896,597.333,896,896,896,896C896,896,597.333,896,597.333,896M896,896C896,896,360.96,360.96,360.96,360.96" class="icon-Fichier 37"/><glyph unicode="&#x0066;" d="M0,1024C0,1024,1024,1024,1024,1024C1024,1024,1024,0,1024,0C1024,0,0,0,0,0C0,0,0,1024,0,1024M810.667,213.333C810.667,213.333,213.333,213.333,213.333,213.333C213.333,213.333,213.333,810.667,213.333,810.667C213.333,810.667,512,810.667,512,810.667C512,810.667,512,896,512,896C512,896,213.333,896,213.333,896C166.187,896,128,857.813,128,810.667C128,810.667,128,213.333,128,213.333C128,166.187,166.187,128,213.333,128C213.333,128,810.667,128,810.667,128C857.813,128,896,166.187,896,213.333C896,213.333,896,512,896,512C896,512,810.667,512,810.667,512C810.667,512,810.667,213.333,810.667,213.333M597.333,896C597.333,896,597.333,810.667,597.333,810.667C597.333,810.667,750.507,810.667,750.507,810.667C750.507,810.667,331.093,391.253,331.093,391.253C331.093,391.253,391.253,331.093,391.253,331.093C391.253,331.093,810.667,750.507,810.667,750.507C810.667,750.507,810.667,597.333,810.667,597.333C810.667,597.333,896,597.333,896,597.333C896,597.333,896,896,896,896C896,896,597.333,896,597.333,896" class="icon-Fichier 38"/><glyph unicode="&#x0067;" d="M381.5,1024C381.5,1024,642.947,1024,642.947,1024C642.947,1024,642.947,762.553,642.947,762.553C642.947,762.553,381.5,762.553,381.5,762.553C381.5,762.553,381.5,1024,381.5,1024M468.649,936.851C468.649,936.851,468.649,958.638,468.649,958.638C468.649,992.18,504.957,1013.15,534.011,996.374C547.497,988.596,555.798,974.205,555.798,958.638C555.798,958.638,555.798,936.851,555.798,936.851M425.074,130.723C425.074,130.723,425.074,21.787,425.074,21.787C425.074,9.75,434.824,0,446.862,0C446.862,0,577.585,0,577.585,0C577.585,0,577.585,108.936,577.585,108.936C577.585,120.974,567.835,130.723,555.798,130.723C555.798,130.723,425.074,130.723,425.074,130.723C413.037,130.723,403.287,120.974,403.287,108.936" class="icon-Fichier 39"/><glyph unicode="&#x0068;" d="C0,1024,0,0,0,0C0,0,1024,0,1024,0C1024,0,1024,1024,1024,1024C1024,1024,0,1024,0,1024M469.298,597.298C469.298,597.298,469.298,256,469.298,256C469.298,256,554.596,256,554.596,256C554.596,256,554.596,597.298,554.596,597.298C554.596,597.298,469.298,597.298,469.298,597.298M469.298,768C469.298,768,469.298,682.702,469.298,682.702C469.298,682.702,554.596,682.702,554.596,682.702C554.596,682.702,554.596,768,554.596,768C554.596,768,469.298,768,469.298,768M256.426,767.574C256.426,767.574,767.574,767.574,767.574,767.574C767.574,767.574,767.574,256.426,767.574,256.426C767.574,256.426,256.426,256.426,256.426,256.426C256.426,256.426,256.426,767.574,256.426,767.574" class="icon-Fichier 40"/><glyph unicode="&#x0069;" d="C0,1024,0,0,0,0C0,0,1024,0,1024,0C1024,0,1024,1024,1024,1024C1024,1024,0,1024,0,1024M512,745.531C421.655,745.648,348.369,672.415,348.433,582.07C348.433,459.607,512,278.576,512,278.576C512,278.576,675.567,459.607,675.567,582.07C675.631,672.415,602.345,745.648,512,745.531C512,745.531,512,745.531,512,745.531M512,523.607C467.083,523.693,439.087,572.369,461.62,611.237C484.153,650.095,540.305,649.999,562.7,611.046C567.79,602.196,570.463,592.176,570.463,581.963C570.526,549.655,544.309,523.437,512,523.501C512,523.501,512,523.607,512,523.607M256.426,767.574C256.426,767.574,767.574,767.574,767.574,767.574C767.574,767.574,767.574,256.426,767.574,256.426C767.574,256.426,256.426,256.426,256.426,256.426C256.426,256.426,256.426,767.574,256.426,767.574" class="icon-Fichier 41"/><glyph unicode="&#x006a;" d="M0,1024C0,1024,1024,1024,1024,1024C1024,1024,1024,0,1024,0C1024,0,0,0,0,0C0,0,0,1024,0,1024M512,981.333C512,981.333,512,981.333,512,981.333C512,981.333,512,852.053,512,852.053C512,852.053,512,852.053,512,852.053C512,852.053,512,981.333,512,981.333M512,171.947C512,171.947,512,171.947,512,171.947C512,171.947,512,42.667,512,42.667C512,42.667,512,42.667,512,42.667C512,42.667,512,171.947,512,171.947M981.333,512C981.333,512,981.333,512,981.333,512C981.333,512,852.053,512,852.053,512C852.053,512,852.053,512,852.053,512C852.053,512,981.333,512,981.333,512M171.947,512C171.947,512,171.947,512,171.947,512C171.947,512,42.667,512,42.667,512C42.667,512,42.667,512,42.667,512C42.667,512,171.947,512,171.947,512M0,1024C0,1024,1024,1024,1024,1024C1024,1024,1024,0,1024,0C1024,0,0,0,0,0C0,0,0,1024,0,1024M171.947,512C171.947,250.24,455.339,86.613,682.027,217.515C787.243,278.229,852.053,390.528,852.053,512C852.053,773.76,568.661,937.387,341.973,806.485C236.757,745.771,171.947,633.472,171.947,512M341.333,512C341.333,380.629,483.541,298.496,597.333,364.203C650.155,394.667,682.667,451.029,682.667,512C682.667,643.371,540.459,725.504,426.667,659.797C373.845,629.333,341.333,572.971,341.333,512" class="icon-Fichier 42"/></font>
</defs>
</svg>
