<?xml version="1.0" encoding="utf-8"?>
<!-- Generator: Adobe Illustrator 22.0.1, SVG Export Plug-In . SVG Version: 6.00 Build 0)  -->
<svg version="1.1" id="Layer_1" xmlns="http://www.w3.org/2000/svg" xmlns:xlink="http://www.w3.org/1999/xlink" x="0px" y="0px"
	 viewBox="0 0 120 80" style="enable-background:new 0 0 120 80;" xml:space="preserve">
<style type="text/css">
	.st0{fill:none;stroke:#FF5440;stroke-width:3;stroke-linecap:round;stroke-linejoin:round;stroke-miterlimit:10;}
</style>
<g>
	<line class="st0" x1="60.1" y1="73" x2="36.6" y2="73"/>
	<path class="st0" d="M70.9,64.3V67c0,3.3,2.7,6,6,6h18.8c3.3,0,6-2.7,6-6V13c0-3.3-2.7-6-6-6H76.9c-3.3,0-6,2.7-6,6v4.4"/>
	<path class="st0" d="M78.2,29.5c0-3.3-2.7-6-6-6H24.6c-3.3,0-6,2.7-6,6v28.4c0,3.3,2.7,6,6,6h47.6c3.3,0,6-2.7,6-6V29.5z"/>
	<line class="st0" x1="91.7" y1="16.1" x2="80.8" y2="16.1"/>
	<g>
		<g>
			<path class="st0" d="M87.2,62.5c0,0.5-0.4,0.9-0.9,0.9s-0.9-0.4-0.9-0.9s0.4-0.9,0.9-0.9C86.8,61.5,87.2,61.9,87.2,62.5z"/>
		</g>
	</g>
</g>
</svg>
