<?xml version="1.0" encoding="utf-8"?>
<!-- Generator: Adobe Illustrator 22.0.1, SVG Export Plug-In . SVG Version: 6.00 Build 0)  -->
<svg version="1.1" id="Layer_1" xmlns="http://www.w3.org/2000/svg" xmlns:xlink="http://www.w3.org/1999/xlink" x="0px" y="0px"
	 viewBox="0 0 120 80" style="enable-background:new 0 0 120 80;" xml:space="preserve">
<style type="text/css">
	.st0{fill:none;stroke:#FF5440;stroke-width:3;stroke-linecap:round;stroke-linejoin:round;stroke-miterlimit:10;}
	.st1{fill:none;stroke:#FF5440;stroke-width:3;stroke-miterlimit:10;}
	.st2{fill:none;stroke:#FF5440;stroke-width:3;stroke-linecap:round;stroke-miterlimit:10;}
</style>
<g>
	<path class="st0" d="M48.4,40.1c-2.2,1.3-4.8,2-7.6,2c-8.3,0-15-6.7-15-15s6.7-15,15-15c1.8,0,3.6,0.3,5.2,0.9l0.5-0.1
		c2.3-5.4,7.5-9,13.7-9c6.1,0,11.4,3.7,13.7,8.9l0.4,0.1c1.6-0.6,3.4-0.9,5.2-0.9c8.3,0,15,6.7,15,15s-6.7,15-15,15
		c-2.8,0-5.3-0.7-7.6-2"/>
	<polyline class="st1" points="79.4,47.8 79.4,76.2 40.9,76.2 40.9,47.6 	"/>
	<line class="st1" x1="40.7" y1="66.4" x2="78.7" y2="66.4"/>
	<line class="st2" x1="51.9" y1="66.3" x2="51.9" y2="49.7"/>
	<line class="st2" x1="60.2" y1="66.3" x2="60.2" y2="49.7"/>
	<line class="st2" x1="68.5" y1="66.3" x2="68.5" y2="49.7"/>
</g>
</svg>
