<?xml version="1.0" encoding="utf-8"?>
<!-- Generator: Adobe Illustrator 22.0.1, SVG Export Plug-In . SVG Version: 6.00 Build 0)  -->
<svg version="1.1" id="Layer_1" xmlns="http://www.w3.org/2000/svg" xmlns:xlink="http://www.w3.org/1999/xlink" x="0px" y="0px"
	 viewBox="0 0 120 80" style="enable-background:new 0 0 120 80;" xml:space="preserve">
<style type="text/css">
	.st0{fill:none;stroke:#FF5440;stroke-width:3;stroke-linecap:round;}
	.st1{fill:none;stroke:#FF5440;stroke-width:3;}
	.st2{fill:none;stroke:#FF5440;stroke-width:3;stroke-linejoin:round;}
</style>
<g>
	<g>
		<line class="st0" x1="30.7" y1="28.3" x2="88.7" y2="28.3"/>
		<line class="st0" x1="59.7" y1="26.8" x2="59.7" y2="9"/>
		<path class="st1" d="M79.7,51c0,11.1-9,20-20,20c-11.1,0-20-9-20-20c0-11.1,10.8-22.5,20.2-22.5C69.4,28.4,79.7,39.9,79.7,51z"/>
		<path class="st2" d="M71.6,47.4c0-6.9-7-9.6-12-9.6c-4.4,0-11.7,2.7-11.7,9.6H71.6z"/>
	</g>
	<g>
		<line class="st1" x1="32.4" y1="55.5" x2="40.1" y2="55.5"/>
		<line class="st1" x1="6.4" y1="55.5" x2="13.2" y2="55.5"/>
		<line class="st0" x1="1.9" y1="55.5" x2="7.6" y2="55.5"/>
		<path class="st1" d="M28.7,61.5c0,3.3-2.6,5.9-5.9,5.9c-3.3,0-5.9-2.6-5.9-5.9c0-3.3,2.6-5.9,5.9-5.9C26,55.5,28.7,58.2,28.7,61.5
			z"/>
	</g>
	<g>
		<line class="st1" x1="86.9" y1="55.5" x2="79.2" y2="55.5"/>
		<line class="st1" x1="112.8" y1="55.5" x2="106" y2="55.5"/>
		<line class="st0" x1="117.4" y1="55.5" x2="111.6" y2="55.5"/>
		<path class="st1" d="M90.6,61.5c0,3.3,2.6,5.9,5.9,5.9c3.3,0,5.9-2.6,5.9-5.9c0-3.3-2.6-5.9-5.9-5.9
			C93.2,55.5,90.6,58.2,90.6,61.5z"/>
	</g>
</g>
</svg>
