<?xml version="1.0" encoding="utf-8"?>
<!-- Generator: Adobe Illustrator 22.0.1, SVG Export Plug-In . SVG Version: 6.00 Build 0)  -->
<svg version="1.1" id="Layer_1" xmlns="http://www.w3.org/2000/svg" xmlns:xlink="http://www.w3.org/1999/xlink" x="0px" y="0px"
	 viewBox="0 0 33.8 33.8" style="enable-background:new 0 0 33.8 33.8;" xml:space="preserve">
<style type="text/css">
	.st0{fill:#FE5442;}
	.st1{fill:#FAFAFA;}
</style>
<g>
	<circle class="st0" cx="16.9" cy="16.7" r="16"/>
	<g>
		<g>
			<path class="st1" d="M21.7,15.5h-1.2v-0.1l0,0c0.2-1.3,0.5-2.3,0.8-3.1c0.1-0.3,0-0.5-0.3-0.6s-0.5,0-0.6,0.3
				c-0.3,0.9-0.6,2-0.8,3.3l0,0c0,0.1,0,0.2-0.1,0.3h-1.7c-0.3,0-0.5,0.2-0.5,0.5s0.2,0.5,0.5,0.5h1.5c-0.7,3.5-1.5,6.9-4.3,6.9
				c-1.5,0-2.7-1.2-2.7-2.7s1.2-2.7,2.7-2.7c0.3,0,0.5-0.2,0.5-0.5s-0.2-0.5-0.5-0.5c-2,0-3.6,1.6-3.6,3.6s1.6,3.6,3.6,3.6
				c3.7,0,4.6-4.1,5.3-7.9h1.4c0.3,0,0.5-0.2,0.5-0.5C22.2,15.8,22,15.5,21.7,15.5z"/>
			<path class="st1" d="M22.5,10c-1.2,0-2.5-0.4-3.7-0.8c-1.1-0.4-2.1-0.7-3-0.7c-2,0-3.6,1.6-3.6,3.6c0,1,0.4,1.9,1.1,2.6
				c0.1,0.1,0.2,0.1,0.3,0.1s0.2,0,0.3-0.1c0.2-0.2,0.2-0.5,0-0.7c-0.5-0.5-0.8-1.2-0.8-1.9c0-1.5,1.2-2.7,2.7-2.7
				c0.7,0,1.7,0.3,2.7,0.7c1.2,0.4,2.6,0.9,4,0.9c0.3,0,0.5-0.2,0.5-0.5C23,10.2,22.8,10,22.5,10z"/>
		</g>
	</g>
</g>
</svg>
