<?xml version="1.0" encoding="utf-8"?>
<!-- Generator: Adobe Illustrator 21.1.0, SVG Export Plug-In . SVG Version: 6.00 Build 0)  -->
<svg version="1.1" id="Layer_1" xmlns="http://www.w3.org/2000/svg" xmlns:xlink="http://www.w3.org/1999/xlink" x="0px" y="0px"
	 viewBox="0 0 100 100" style="enable-background:new 0 0 100 100;" xml:space="preserve">
<style type="text/css">
	.st0{fill:none;}
	.st1{fill:#FFFFFF;}
</style>
<g>
	<circle class="st0" cx="50" cy="50" r="50"/>
	<g>
		<g>
			<g>
				<path class="st1" d="M12.2,50.9l-0.9,0.9L9.5,50l-1.8,1.8l-0.9-0.9l1.8-1.8l0.9-0.9l0.9,0.9L12.2,50.9z"/>
			</g>
			<g>
				<path class="st1" d="M87.8,49.1l0.9-0.9l1.8,1.8l1.8-1.8l0.9,0.9l-1.8,1.8l-0.9,0.9l-0.9-0.9L87.8,49.1z"/>
			</g>
			<g>
				<g>
					<path class="st1" d="M10.7,38.3l0.7-2.2l1.1,0.3l-0.7,2.2l1.8,0.6l-0.4,1.3L8,38.9L9.2,35l1.1,0.4L9.5,38L10.7,38.3z"/>
				</g>
				<g>
					<path class="st1" d="M17.1,31.2l-1.8,3.6l-4.9-2.4l0.6-1.2l3.8,1.9l1.2-2.4L17.1,31.2z"/>
				</g>
				<g>
					<path class="st1" d="M17.7,27.3l1.4,0.9l-0.8,1.1l-1.4-0.9L12.5,28l0.8-1.2L16,27l-1.2-2.4l0.8-1.2L17.7,27.3z"/>
				</g>
				<g>
					<path class="st1" d="M27.7,19.3l-1,0.9l-1.8-2.1l0.3,2.2l0,0l-0.6,0.5l0,0l-2.1-0.6l1.8,2.1l-1,0.9l-3.5-4.1l0.8-0.7l3.4,1
						l-0.4-3.5l0.8-0.7L27.7,19.3z"/>
				</g>
				<g>
					<path class="st1" d="M29.2,14.5l2.1-1.2l0.6,1l-2.1,1.2l0.5,0.8l2.4-1.4l0.6,1l-3.6,2L27,13.2l3.6-2l0.6,1l-2.4,1.4L29.2,14.5z
						"/>
				</g>
				<g>
					<path class="st1" d="M39.4,9.3l1.1,4.1l-1.3,0.4l-1.1-4.1l-1.7,0.5L36.1,9l4.6-1.3L41,8.9L39.4,9.3z"/>
				</g>
				<g>
					<path class="st1" d="M45.4,6.9c0.8-0.1,1.5,0.1,2.1,0.6s1,1.1,1,1.9c0.1,0.8-0.1,1.5-0.6,2.1s-1.1,0.9-2,1
						c-0.8,0.1-1.5-0.1-2.1-0.6s-0.9-1.1-1-1.9s0.1-1.5,0.6-2.1S44.5,6.9,45.4,6.9z M45.8,11.2c0.4,0,0.8-0.2,1-0.6
						c0.3-0.3,0.4-0.7,0.3-1.2c0-0.4-0.2-0.8-0.5-1.1C46.3,8,45.9,7.9,45.5,8c-0.4,0-0.8,0.2-1,0.6c-0.3,0.3-0.4,0.7-0.3,1.2
						c0,0.4,0.2,0.8,0.5,1.1C45,11.2,45.4,11.3,45.8,11.2z"/>
				</g>
				<g>
					<path class="st1" d="M56.5,8.4l-0.6,4.2l-1.3-0.2l0.6-4.2L53.5,8l0.2-1.2l4.8,0.7l-0.2,1.2L56.5,8.4z"/>
				</g>
				<g>
					<path class="st1" d="M63.9,14.7l-1.3-0.4l0.6-1.9l-2.1-0.7l-0.6,1.9l-1.3-0.4L60.9,8l1.3,0.4l-0.7,2.1l2.1,0.7l0.7-2.1l1.3,0.4
						L63.9,14.7z"/>
				</g>
				<g>
					<path class="st1" d="M68.6,13.3l2.1,1.1l-0.5,1l-2.1-1.1l-0.4,0.8l2.4,1.3l-0.5,1L66,15.5l2.5-4.8l3.6,1.9l-0.5,1l-2.4-1.3
						L68.6,13.3z"/>
				</g>
				<g>
					<path class="st1" d="M77,19.2l1.7,1.6l-0.8,0.9l-1.7-1.6l-1.3,1.4l-1-0.9l3.6-4l3,2.7l-0.8,0.9l-2-1.8L77,19.2z"/>
				</g>
				<g>
					<path class="st1" d="M83.9,23c0.5,0.6,0.7,1.3,0.6,2.1c-0.1,0.8-0.4,1.4-1.1,1.9c-0.6,0.5-1.3,0.7-2.1,0.6
						c-0.8-0.1-1.4-0.5-1.9-1.1s-0.7-1.3-0.6-2.1c0.1-0.8,0.4-1.4,1.1-1.9c0.6-0.5,1.3-0.7,2.1-0.6C82.8,21.9,83.4,22.3,83.9,23z
						 M80.5,25.7c0.3,0.3,0.6,0.5,1,0.6c0.4,0,0.8-0.1,1.1-0.4c0.3-0.3,0.5-0.6,0.6-1s0-0.8-0.3-1.1c-0.3-0.3-0.6-0.5-1-0.6
						c-0.4,0-0.8,0.1-1.1,0.4c-0.3,0.3-0.5,0.6-0.6,1S80.2,25.4,80.5,25.7z"/>
				</g>
				<g>
					<path class="st1" d="M88.3,29.5c0.4,0.7,0.5,1.4,0.2,2.2c-0.2,0.7-0.7,1.3-1.4,1.7c-0.7,0.4-1.4,0.4-2.2,0.2
						c-0.7-0.2-1.3-0.7-1.7-1.4c-0.4-0.7-0.5-1.5-0.2-2.2c0.2-0.7,0.7-1.3,1.4-1.7c0.7-0.4,1.4-0.5,2.2-0.2
						C87.3,28.3,87.9,28.8,88.3,29.5z M84.4,31.6c0.2,0.4,0.5,0.6,0.9,0.7s0.8,0.1,1.2-0.1c0.4-0.2,0.6-0.5,0.8-0.9
						c0.1-0.4,0.1-0.8-0.1-1.2c-0.2-0.4-0.5-0.6-0.9-0.7s-0.8-0.1-1.2,0.1c-0.4,0.2-0.6,0.5-0.8,0.9C84.1,30.9,84.2,31.2,84.4,31.6z
						"/>
				</g>
				<g>
					<path class="st1" d="M91.2,36.7c0.3,0.8,0.2,1.6-0.1,2.2c-0.3,0.7-0.9,1.1-1.6,1.4c-0.8,0.2-1.5,0.2-2.1-0.2
						c-0.6-0.4-1.1-1-1.4-1.8l-0.7-2.1l5.2-1.6L91.2,36.7z M87.2,38c0.1,0.4,0.4,0.7,0.7,0.9c0.4,0.2,0.8,0.2,1.2,0.1
						c0.4-0.1,0.7-0.4,0.9-0.7c0.2-0.4,0.2-0.8,0.1-1.2l-0.3-0.8l-2.9,0.9L87.2,38z"/>
				</g>
				<g>
					<path class="st1" d="M89.3,61.6l-0.7,2.2l-1.1-0.3l0.7-2.2l-1.8-0.6l0.4-1.3L92,61l-1.2,3.9l-1.1-0.4l0.8-2.6L89.3,61.6z"/>
				</g>
				<g>
					<path class="st1" d="M82.9,68.8l1.8-3.6l4.9,2.4L89,68.8l-3.8-1.9L84,69.3L82.9,68.8z"/>
				</g>
				<g>
					<path class="st1" d="M82.3,72.7l-1.4-0.9l0.8-1.1l1.4,0.9l4.4,0.4l-0.8,1.2L84,73l1.2,2.4l-0.8,1.2L82.3,72.7z"/>
				</g>
				<g>
					<path class="st1" d="M72.3,80.7l1-0.9l1.8,2.1l-0.3-2.2l0,0l0.6-0.5l0,0l2.1,0.6l-1.8-2.1l1-0.9l3.5,4.1l-0.8,0.7l-3.4-1
						l0.4,3.5l-0.8,0.7L72.3,80.7z"/>
				</g>
				<g>
					<path class="st1" d="M70.8,85.5l-2.1,1.2l-0.6-1l2.1-1.2l-0.5-0.8l-2.4,1.4l-0.6-1l3.6-2l2.7,4.7l-3.6,2l-0.6-1l2.4-1.4
						L70.8,85.5z"/>
				</g>
				<g>
					<path class="st1" d="M60.7,90.7l-1.1-4.1l1.3-0.4l1.1,4.1l1.7-0.5L64,91l-4.6,1.3l-0.3-1.2L60.7,90.7z"/>
				</g>
				<g>
					<path class="st1" d="M54.7,93.2c-0.8,0.1-1.5-0.1-2.1-0.6s-1-1.1-1-1.9c-0.1-0.8,0.1-1.5,0.6-2.1s1.1-0.9,2-1
						c0.8-0.1,1.5,0.1,2.1,0.6s1,1.1,1,1.9c0.1,0.8-0.1,1.5-0.6,2.1C56.1,92.7,55.5,93.1,54.7,93.2z M54.2,88.8
						c-0.4,0-0.8,0.2-1,0.6c-0.3,0.3-0.4,0.7-0.3,1.2c0,0.4,0.2,0.8,0.5,1.1c0.3,0.3,0.7,0.4,1.1,0.3c0.4,0,0.8-0.2,1-0.6
						c0.3-0.3,0.4-0.7,0.3-1.2c0-0.4-0.2-0.8-0.5-1.1C55,88.8,54.6,88.7,54.2,88.8z"/>
				</g>
				<g>
					<path class="st1" d="M43.5,91.6l0.6-4.2l1.3,0.2l-0.6,4.2l1.7,0.2l-0.2,1.2l-4.8-0.7l0.2-1.2L43.5,91.6z"/>
				</g>
				<g>
					<path class="st1" d="M36.1,85.3l1.3,0.4l-0.6,1.9l2.1,0.7l0.6-1.9l1.3,0.4L39.1,92l-1.3-0.4l0.7-2.1l-2.1-0.7l-0.7,2.1
						l-1.3-0.4L36.1,85.3z"/>
				</g>
				<g>
					<path class="st1" d="M31.4,86.7l-2.1-1.1l0.5-1l2.1,1.1l0.4-0.8l-2.4-1.3l0.5-1l3.6,1.9l-2.5,4.8l-3.6-1.9l0.5-1l2.4,1.3
						L31.4,86.7z"/>
				</g>
				<g>
					<path class="st1" d="M23,80.8l-1.7-1.6l0.8-0.9l1.7,1.6l1.3-1.4l1,0.9l-3.6,4.1l-3-2.7l0.8-0.9l2,1.8L23,80.8z"/>
				</g>
				<g>
					<path class="st1" d="M16.1,77.1c-0.5-0.6-0.7-1.3-0.6-2.1c0.1-0.8,0.4-1.4,1-1.9s1.3-0.7,2.1-0.6c0.8,0.1,1.4,0.5,1.9,1.1
						s0.7,1.3,0.6,2.1c-0.1,0.8-0.4,1.4-1.1,1.9c-0.6,0.5-1.3,0.7-2.1,0.6C17.2,78.1,16.6,77.7,16.1,77.1z M19.5,74.3
						c-0.3-0.3-0.6-0.5-1-0.6c-0.4,0-0.8,0.1-1.1,0.4c-0.3,0.3-0.5,0.6-0.6,1s0,0.8,0.3,1.1c0.3,0.3,0.6,0.5,1,0.6
						c0.4,0,0.8-0.1,1.1-0.4c0.3-0.3,0.5-0.6,0.6-1S19.8,74.7,19.5,74.3z"/>
				</g>
				<g>
					<path class="st1" d="M11.7,70.4c-0.4-0.7-0.5-1.4-0.2-2.2c0.2-0.7,0.7-1.3,1.4-1.7c0.7-0.4,1.4-0.4,2.2-0.2
						c0.7,0.2,1.3,0.7,1.7,1.4c0.4,0.7,0.5,1.5,0.2,2.2c-0.2,0.7-0.7,1.3-1.4,1.7c-0.7,0.4-1.4,0.5-2.2,0.2
						C12.7,71.6,12.1,71.2,11.7,70.4z M15.6,68.4c-0.2-0.4-0.5-0.6-0.9-0.7s-0.8-0.1-1.2,0.1c-0.4,0.2-0.6,0.5-0.8,0.9
						c-0.1,0.4-0.1,0.8,0.1,1.2c0.2,0.4,0.5,0.6,0.9,0.7s0.8,0.1,1.2-0.1c0.4-0.2,0.6-0.5,0.8-0.9C15.8,69.1,15.8,68.7,15.6,68.4z"
						/>
				</g>
				<g>
					<path class="st1" d="M8.8,63.3c-0.3-0.8-0.2-1.6,0.1-2.2c0.3-0.7,0.9-1.1,1.6-1.4c0.8-0.2,1.5-0.2,2.1,0.2
						c0.6,0.4,1.1,1,1.4,1.8l0.7,2.1l-5.2,1.6L8.8,63.3z M12.8,62c-0.1-0.4-0.4-0.7-0.7-0.9c-0.4-0.2-0.8-0.2-1.2-0.1
						c-0.4,0.1-0.7,0.4-0.9,0.7c-0.2,0.4-0.2,0.8-0.1,1.2l0.3,0.8l2.9-0.9L12.8,62z"/>
				</g>
			</g>
		</g>
		<g>
			<path class="st1" d="M64.9,46.5h-3.8c0-0.1,0.1-0.3,0.1-0.4l0,0c0.8-4,1.5-7.2,2.4-9.8c0.3-0.8-0.1-1.7-0.9-2s-1.7,0.1-2,0.9
				c-1,2.8-1.8,6.1-2.6,10.3l0,0c-0.1,0.3-0.1,0.7-0.2,1h-5.4c-0.8,0-1.5,0.7-1.5,1.5s0.7,1.5,1.5,1.5h4.8
				C55.2,60.4,52.7,71,43.9,71c-4.6,0-8.3-3.7-8.3-8.3c0-4.6,3.7-8.3,8.3-8.3c0.8,0,1.5-0.7,1.5-1.5s-0.7-1.5-1.5-1.5
				c-6.3,0-11.4,5.1-11.4,11.4s5.1,11.4,11.4,11.4c11.4,0,14.2-12.8,16.5-24.6h4.4c0.8,0,1.5-0.7,1.5-1.5
				C66.4,47.2,65.7,46.5,64.9,46.5z"/>
			<path class="st1" d="M67.4,29.3c-3.7,0-7.7-1.3-11.5-2.7c-3.4-1.2-6.6-2.3-9.4-2.3c-6.3,0-11.4,5.1-11.4,11.4c0,3,1.2,5.9,3.3,8
				c0.3,0.3,0.7,0.4,1.1,0.4s0.8-0.1,1.1-0.4c0.6-0.6,0.6-1.6,0-2.2c-1.6-1.6-2.4-3.7-2.4-5.9c0-4.6,3.7-8.3,8.3-8.3
				c2.3,0,5.2,1,8.4,2.1c3.9,1.3,8.3,2.8,12.5,2.8c0.8,0,1.5-0.7,1.5-1.5C68.9,30,68.2,29.3,67.4,29.3z"/>
		</g>
	</g>
</g>
</svg>
