<?xml version="1.0" ?><svg data-name="Layer 2" id="Layer_2" viewBox="0 0 250 250" xmlns="http://www.w3.org/2000/svg"><title/><path d="M186,86.5c0-40.8-27.36-74-61-74s-61,33.2-61,74c0,37.37,23,68.34,52.66,73.29l-5.21,53.92a25.73,25.73,0,0,0-.45,4.79c0,10.65,6.15,19,14,19s14-8.35,14-19a26.59,26.59,0,0,0-.44-4.79l-5.22-53.92C163,154.84,186,123.87,186,86.5Zm-60.63,74,5.24,54.17a2.71,2.71,0,0,0,.06.38,18.09,18.09,0,0,1,.33,3.45c0,6.3-3.17,11-6,11s-6-4.7-6-11a18.09,18.09,0,0,1,.33-3.45,2.71,2.71,0,0,0,.06-.38l5.24-54.17Zm-.37-8c-29.22,0-53-29.61-53-66s23.78-66,53-66,53,29.61,53,66S154.22,152.5,125,152.5Z"/><path d="M125,25.5c-27,0-49,27.36-49,61s22,61,49,61,49-27.36,49-61S152,25.5,125,25.5Zm0,114c-22.61,0-41-23.78-41-53s18.39-53,41-53,41,23.78,41,53S147.61,139.5,125,139.5Z"/><path d="M135.46,73.54a4,4,0,0,0-5.66,0L113.54,89.8a4,4,0,0,0,5.66,5.66L135.46,79.2A4,4,0,0,0,135.46,73.54Z"/><path d="M134.05,84.85l-9.2,9.2a4,4,0,0,0,5.66,5.65l9.19-9.19a4,4,0,0,0-5.65-5.66Z"/><path d="M124.15,75a4,4,0,0,0-5.66-5.65l-9.19,9.19A4,4,0,1,0,115,84.15Z"/></svg>