<?xml version="1.0" ?><svg height="25px" version="1.1" viewBox="0 0 25 25" width="25px" xmlns="http://www.w3.org/2000/svg" xmlns:sketch="http://www.bohemiancoding.com/sketch/ns" xmlns:xlink="http://www.w3.org/1999/xlink"><title/><desc/><defs/><g fill="none" fill-rule="evenodd" id="TabBar-Icons" stroke="none" stroke-width="1"><g fill="#000000" id="Document-Single"><path d="M3,0 L22,0 L22,25 L3,25 L3,0 Z M4,1 L21,1 L21,24 L4,24 L4,1 Z M6,21 L19,21 L19,22 L6,22 L6,21 Z M6,18 L19,18 L19,19 L6,19 L6,18 Z M6,15 L19,15 L19,16 L6,16 L6,15 Z M6,12 L19,12 L19,13 L6,13 L6,12 Z M6,9 L19,9 L19,10 L6,10 L6,9 Z M6,6 L19,6 L19,7 L6,7 L6,6 Z M6,3 L19,3 L19,4 L6,4 L6,3 Z" id="Document"/></g></g></svg>