<?xml version="1.0" encoding="UTF-8"?>
<!-- Generator: Adobe Illustrator 15.0.0, SVG Export Plug-In . SVG Version: 6.00 Build 0)  -->
<!DOCTYPE svg PUBLIC "-//W3C//DTD SVG 1.1//EN" "http://www.w3.org/Graphics/SVG/1.1/DTD/svg11.dtd">
<svg version="1.1" id="Layer_1" xmlns="http://www.w3.org/2000/svg" xmlns:xlink="http://www.w3.org/1999/xlink" x="0px" y="0px" width="185px" height="73px" viewBox="0 0 222.609 88.107" enable-background="new 0 0 222.609 88.107" xml:space="preserve">

<rect id="XMLID_250_" x="-109.1" y="550.9" fill="#346166" width="97.1" height="50"/>

<path id="XMLID_69_" fill="#346166" d="M10.508,1.353h47.3c4.3,0,7.899,3.601,7.899,7.9v47.4c0,4.301-3.5,7.9-7.899,7.9h-47.3   c-4.301,0-7.9-3.602-7.9-7.9v-47.4C2.607,4.853,6.107,1.353,10.508,1.353"/>

<polygon id="XMLID_68_" fill="#FFFFFF" points="21.207,44.253 22.307,50.454 22.508,50.454 23.807,44.253 31.907,16.853    35.107,16.853 43.107,44.253 44.407,50.454 44.607,50.454 45.807,44.253 52.607,16.853 56.008,16.853 46.207,55.253 43.207,55.253    34.508,25.753 33.607,21.653 33.407,21.653 32.508,25.753 23.707,55.253 20.707,55.253 10.907,16.853 14.307,16.853 "/>

<path id="XMLID_56_" fill="#346166" d="M220.607,56.454h-3.1v-40.5h3.102L220.607,56.454L220.607,56.454z M208.807,56.454h-3.101   v-40.5h3.102L208.807,56.454L208.807,56.454z M182.907,54.253c2.4,0,4.5-0.602,6.2-1.699c1.7-1.102,2.899-2.602,3.6-4.4v-5.4h-6.899   c-2.5,0-4.603,0.6-6.301,1.8c-1.602,1.199-2.5,2.699-2.5,4.299c0,1.602,0.5,2.9,1.601,3.801   C179.707,53.553,181.008,54.253,182.907,54.253z M193.207,56.454c-0.199-1-0.3-1.801-0.398-2.5c-0.102-0.701-0.102-1.4-0.102-2.201   c-1,1.5-2.3,2.801-4.1,3.801c-1.7,1-3.8,1.5-6,1.5c-2.8,0-4.9-0.701-6.4-2.201s-2.3-3.398-2.3-6c0-2.5,1.101-4.5,3.3-6.099   c2.2-1.603,5.102-2.3,8.602-2.3h6.898v-3.5c0-2-0.6-3.601-1.898-4.7c-1.301-1.101-3.102-1.7-5.399-1.7c-2.101,0-3.8,0.5-5.199,1.6   c-1.301,1-2,2.4-2,3.9h-2.9l-0.103-0.2c-0.1-2.1,0.802-4,2.7-5.6c1.899-1.601,4.399-2.4,7.5-2.4c3.102,0,5.602,0.8,7.399,2.4   c1.898,1.6,2.801,3.8,2.801,6.8v13.799c0,1,0.1,2,0.199,2.9c0.101,0.898,0.301,1.898,0.601,2.801h-3.2V56.454L193.207,56.454z    M147.707,33.153c1-1.699,2.2-3,3.801-3.899c1.602-0.9,3.399-1.4,5.399-1.4c3,0,5.2,0.9,6.8,2.8c1.602,1.801,2.4,4.7,2.4,8.5v17.301   h-3.2V39.153c0-3.1-0.6-5.199-1.8-6.6c-1.2-1.3-2.9-2-5-2c-2.2,0-4,0.5-5.4,1.6c-1.398,1.101-2.398,2.5-3.1,4.301v20.1h-3.1v-40.6   h3.102v17.199H147.707z M133.508,47.253c0-1.9-0.801-3.5-2.301-4.8c-1.5-1.302-4.199-2.399-7.8-3.602c-4-1.1-7.1-2.5-9.2-4.1   c-2.1-1.601-3.199-3.9-3.199-6.7c0-2.9,1.199-5.3,3.5-7.1c2.399-1.9,5.399-2.801,9-2.801c3.801,0,6.899,1,9.301,3.2   c2.301,2.101,3.5,4.8,3.398,8l-0.1,0.2h-2.9c0-2.5-0.898-4.6-2.699-6.2c-1.801-1.6-4.199-2.5-7-2.5c-2.898,0-5.199,0.7-6.898,2.101   c-1.7,1.399-2.5,3.1-2.5,5.1c0,1.9,0.8,3.5,2.3,4.7s4.2,2.399,8,3.5c4,1.2,7,2.6,9.102,4.3c2.101,1.699,3.101,4,3.101,6.799   c0,2.9-1.2,5.301-3.7,7.102c-2.399,1.801-5.5,2.699-9.3,2.699c-3.7,0-7-0.898-9.7-2.801c-2.8-1.898-4.1-4.699-4-8.299l0.101-0.201   h2.899c0,2.9,1.101,5.102,3.301,6.5c2.199,1.4,4.699,2.102,7.5,2.102c2.898,0,5.299-0.699,7.1-2   C132.607,51.053,133.508,49.352,133.508,47.253z M102.807,56.454h-3.101v-40.5h3.101V56.454z M89.807,56.454h-3.101v-40.5h3.101   V56.454z M77.707,20.353h-3.1v-4.399h3.1V20.353z M77.707,56.454h-3.1V28.353h3.1V56.454z"/>

</svg>